<svg xmlns="http://www.w3.org/2000/svg" width="46.54" height="42" viewBox="0 0 46.54 42">
  <g id="np_download_688274_000000" transform="translate(-9 -12.999)">
    <path id="Caminho_566" data-name="Caminho 566" d="M9,45.568v22.7a.59.59,0,0,0,.568.568h45.4a.59.59,0,0,0,.568-.568v-22.7A.59.59,0,0,0,54.972,45H47.051a.568.568,0,1,0,0,1.135H54.4V67.7H10.135V46.135h7.354a.568.568,0,1,0,0-1.135H9.568A.565.565,0,0,0,9,45.568Z" transform="translate(0 -13.838)" fill="#fff"/>
    <path id="Caminho_567" data-name="Caminho 567" d="M41.824,46.911,32.175,37.83a.584.584,0,0,1-.027-.807A.6.6,0,0,1,32.956,37l8.691,8.176V13.567a.568.568,0,1,1,1.135,0V45.173L51.472,37a.592.592,0,0,1,.807.027.578.578,0,0,1-.027.807L42.6,46.911a.61.61,0,0,1-.78,0Z" transform="translate(-9.946)" fill="#fff"/>
  </g>
</svg>
