<svg id="Layer_1" data-name="Layer 1" xmlns="http://www.w3.org/2000/svg" viewBox="0 0 72 72"><defs><style>.cls-1{fill:#484B4F;}.cls-2{fill:#d1a687;}</style></defs><title></title><g id="Group_131" data-name="Group 131"><path id="Path_275" data-name="Path 275" class="cls-1" d="M38.07,41.5a5.5,5.5,0,1,1,4.79-8.26l1.82-.93a7.53,7.53,0,1,0,0,7.38l-1.82-.93A5.55,5.55,0,0,1,38.07,41.5Z"/><g id="Group_125" data-name="Group 125"><path id="Path_276" data-name="Path 276" class="cls-2" d="M54.68,64.61l.87-.53.2-.13-4.46-7.1-.2.13-.66.4-.2.12,4.24,7.24Z"/><path id="Path_277" data-name="Path 277" class="cls-2" d="M68.12,49.71c.14-.31.28-.62.41-.93l.09-.22-7.74-3.24-.09.22-.3.7-.1.21L68,49.92Z"/><path id="Path_278" data-name="Path 278" class="cls-2" d="M64.69,55.57l.59-.84.14-.19L58.5,49.79l-.14.2c-.14.21-.29.41-.44.62l-.14.19,6.77,5Z"/><path id="Path_279" data-name="Path 279" class="cls-2" d="M60.15,60.6l.75-.7.17-.16-5.82-6.05-.17.16c-.18.18-.37.35-.56.52l-.17.16L60,60.76Z"/><path id="Path_280" data-name="Path 280" class="cls-2" d="M70.54,30l-.05-.23c-.06-.33-.13-.67-.2-1l-.05-.23L62,30.37l.06.23.15.75,0,.23Z"/><path id="Path_281" data-name="Path 281" class="cls-2" d="M70.28,43.27l.21-1,0-.23-8.24-1.58,0,.23c0,.25-.1.5-.15.75l-.05.23,8.19,1.83Z"/><path id="Path_282" data-name="Path 282" class="cls-2" d="M22,17.07c.19-.16.39-.33.59-.48l.18-.15L17.56,9.86l-.18.15-.79.64-.18.16,5.41,6.41Z"/><path id="Path_283" data-name="Path 283" class="cls-2" d="M55.79,8.07,55.59,8l-.88-.54-.2-.11-4.25,7.23.2.12c.22.13.44.26.65.4l.2.12Z"/><path id="Path_284" data-name="Path 284" class="cls-2" d="M18.47,20.72c.15-.2.32-.4.48-.59l.15-.19-6.43-5.38-.15.18c-.22.25-.43.52-.65.79l-.14.19,6.6,5.18Z"/><path id="Path_285" data-name="Path 285" class="cls-2" d="M68.64,23.49l-.09-.22c-.13-.31-.27-.63-.41-.94l-.1-.21L60.4,25.58l.1.22.3.7.09.21Z"/><path id="Path_286" data-name="Path 286" class="cls-2" d="M65.44,17.5l-.13-.19-.59-.84-.14-.19L57.8,21.23l.14.19c.15.2.3.41.44.62l.13.2Z"/><path id="Path_287" data-name="Path 287" class="cls-2" d="M61.09,12.29l-.17-.16-.74-.7L60,11.27l-5.64,6.22.18.16.56.52.16.16Z"/><path id="Path_288" data-name="Path 288" class="cls-2" d="M71.07,36.54V35.28l-8.38.12v1.24l8.39.13Z"/><path id="Path_289" data-name="Path 289" class="cls-2" d="M27,58.23l-.21-.1-.68-.36-.2-.11L22,65l.2.11.91.47.21.11Z"/><path id="Path_290" data-name="Path 290" class="cls-2" d="M26.18,14.21l.68-.35.21-.1-3.76-7.5-.21.1-.91.47-.2.11,4,7.38Z"/><path id="Path_291" data-name="Path 291" class="cls-2" d="M31.79,60l-.23-.06-.73-.21-.23-.07-2.4,8,.23.07,1,.27.23.06Z"/><path id="Path_292" data-name="Path 292" class="cls-2" d="M30.86,12.28c.25-.08.49-.15.74-.21l.22-.06L29.68,3.9,29.46,4c-.33.08-.67.18-1,.27l-.23.07,2.4,8Z"/><path id="Path_293" data-name="Path 293" class="cls-2" d="M19.08,52l-.15-.18-.48-.59-.15-.18-6.6,5.17.15.19c.21.27.43.53.64.79l.15.18Z"/><path id="Path_294" data-name="Path 294" class="cls-2" d="M22.74,55.54l-.18-.14c-.2-.16-.4-.32-.59-.49l-.18-.15-5.41,6.41.18.15c.25.22.52.44.78.65l.19.14Z"/><path id="Path_295" data-name="Path 295" class="cls-2" d="M43.17,3.27l-.23,0c-.34,0-.68-.1-1-.13l-.23,0-1,8.33.23,0,.76.1.23,0Z"/><path id="Path_296" data-name="Path 296" class="cls-2" d="M48.49,67.42c.32-.1.65-.22,1-.34l.22-.08-2.92-7.87-.22.09-.72.25-.22.07,2.67,8Z"/><path id="Path_297" data-name="Path 297" class="cls-2" d="M49.73,5l-.22-.08c-.33-.13-.65-.24-1-.35l-.22-.07-2.68,8,.22.07.72.26.22.08Z"/><path id="Path_298" data-name="Path 298" class="cls-2" d="M36.8,60.73l-.23,0-.76-.05-.24,0L34.86,69l.23,0,1,.07.24,0Z"/><path id="Path_299" data-name="Path 299" class="cls-2" d="M35.84,11.34l.76-.05.24,0L36.4,2.89l-.24,0c-.33,0-.68,0-1,.07l-.23,0,.7,8.36Z"/><path id="Path_300" data-name="Path 300" class="cls-2" d="M41.87,68.91l1-.13.23,0-1.24-8.3-.23,0-.76.1-.23,0,1,8.34Z"/></g><path id="Path_301" data-name="Path 301" class="cls-1" d="M11.34,31.07a2.86,2.86,0,0,0-2.58-2.2H6.17L.92,43.06H4.34l.9-2.61h6l.89,2.61h3.42ZM8.11,32.2h.12c.32,0,.47.19.59.56l1.58,4.85H6.23Z"/></g></svg>