<svg xmlns="http://www.w3.org/2000/svg" width="42.414" height="42.413" viewBox="0 0 42.414 42.413">
  <g id="np_circular-diagram_2186169_000000" transform="translate(-5 -5)">
    <path id="Caminho_430" data-name="Caminho 430" d="M65.633,24.9l.018.212h6.785l-.015-.247A21.251,21.251,0,0,0,52.576,5.015L52.327,5v6.784l.212.018A14.435,14.435,0,0,1,65.633,24.9ZM52.8,5.5A20.785,20.785,0,0,1,71.94,24.643H66.079A14.9,14.9,0,0,0,52.795,11.359Z" transform="translate(-25.024)" fill="#fff"/>
    <path id="Caminho_431" data-name="Caminho 431" d="M5.015,24.862,5,25.109h6.784L11.8,24.9A14.434,14.434,0,0,1,24.895,11.8l.212-.018,0-6.785-.247.015A21.249,21.249,0,0,0,5.015,24.862Zm19.627-13.5A14.9,14.9,0,0,0,11.358,24.643H5.5A20.785,20.785,0,0,1,24.642,5.5Z" transform="translate(0 0)" fill="#fff"/>
    <path id="Caminho_432" data-name="Caminho 432" d="M65.634,52.543A14.434,14.434,0,0,1,52.541,65.636l-.212.018,0,6.785.249-.015A21.249,21.249,0,0,0,72.421,52.58l.017-.249H65.654Zm6.307.254A20.785,20.785,0,0,1,52.8,71.943V66.081A14.9,14.9,0,0,0,66.08,52.8Z" transform="translate(-25.024 -25.025)" fill="#fff"/>
    <path id="Caminho_433" data-name="Caminho 433" d="M11.8,52.543l-.018-.212H5l.015.247A21.247,21.247,0,0,0,24.859,72.423l.249.017V65.656l-.212-.018A14.436,14.436,0,0,1,11.8,52.543Zm12.84,19.4A20.785,20.785,0,0,1,5.5,52.8h5.862A14.9,14.9,0,0,0,24.643,66.082Z" transform="translate(0 -25.026)" fill="#fff"/>
  </g>
</svg>
