<svg xmlns="http://www.w3.org/2000/svg" width="835.5" height="124" viewBox="0 0 835.5 124">
  <g id="Grupo_296" data-name="Grupo 296" transform="translate(-221 -3684.999)">
    <g id="Grupo_295" data-name="Grupo 295" transform="translate(220.523 3684.629)">
      <rect id="Retângulo_132" data-name="Retângulo 132" width="563" height="124" transform="translate(0.477 0.37)" fill="none"/>
      <path id="Caminho_274" data-name="Caminho 274" d="M1397.336,310.213" transform="translate(-833.681 -185.854)" fill="none"/>
    </g>
    <path id="Caminho_568" data-name="Caminho 568" d="M421.19,1921.822l6.641-18.721c.423-1.183,1.629-4.194,4.92-4.194h8.432c-2.776.383-3.827,3.1-4.219,4.194l-6.641,18.721c-.423,1.183-1.629,4.195-4.92,4.195h-8.432C419.747,1925.633,420.8,1922.919,421.19,1921.822Z" transform="translate(300.313 1820.854)" fill="none" stroke="#fff" stroke-linejoin="round" stroke-width="0.999"/>
    <path id="Caminho_569" data-name="Caminho 569" d="M466.873,1921.822l-6.641-18.721c-.423-1.183-1.63-4.194-4.92-4.194h-8.431c2.776.383,3.826,3.1,4.219,4.194l6.641,18.721c.423,1.183,1.63,4.195,4.921,4.195h8.431C468.316,1925.633,467.266,1922.919,466.873,1921.822Z" transform="translate(285.772 1820.854)" fill="none" stroke="#fff" stroke-linejoin="round" stroke-width="0.999"/>
    <path id="Caminho_570" data-name="Caminho 570" d="M407.055,1955.861l-6.641,18.72c-.423,1.183-1.63,4.195-4.921,4.195h-8.431c2.776-.383,3.826-3.1,4.219-4.195l6.641-18.72c.423-1.183,1.63-4.2,4.921-4.2h8.431C408.5,1952.049,407.447,1954.764,407.055,1955.861Z" transform="translate(314.854 1794.971)" fill="none" stroke="#fff" stroke-linejoin="round" stroke-width="0.999"/>
    <path id="Caminho_571" data-name="Caminho 571" d="M407.055,1955.861l-6.641,18.72c-.423,1.183-1.63,4.195-4.921,4.195h-8.431c2.776-.383,3.826-3.1,4.219-4.195l6.641-18.72c.423-1.183,1.63-4.2,4.921-4.2h8.431C408.5,1952.049,407.447,1954.764,407.055,1955.861Z" transform="translate(285.872 1794.971)" fill="none" stroke="#fff" stroke-linejoin="round" stroke-width="0.999"/>
    <path id="Caminho_572" data-name="Caminho 572" d="M407.055,1955.861l-6.641,18.72c-.423,1.183-1.63,4.195-4.921,4.195h-8.431c2.776-.383,3.826-3.1,4.219-4.195l6.641-18.72c.423-1.183,1.63-4.2,4.921-4.2h8.431C408.5,1952.049,407.447,1954.764,407.055,1955.861Z" transform="translate(255.681 1794.971)" fill="none" stroke="#fff" stroke-linejoin="round" stroke-width="0.999"/>
    <path id="Caminho_573" data-name="Caminho 573" d="M407.055,1955.861l-6.641,18.72c-.423,1.183-1.63,4.195-4.921,4.195h-8.431c2.776-.383,3.826-3.1,4.219-4.195l6.641-18.72c.423-1.183,1.63-4.2,4.921-4.2h8.431C408.5,1952.049,407.447,1954.764,407.055,1955.861Z" transform="translate(226.295 1794.971)" fill="none" stroke="#fff" stroke-linejoin="round" stroke-width="0.999"/>
    <path id="Caminho_574" data-name="Caminho 574" d="M466.873,1955.861l-6.641,18.72c-.423,1.183-1.63,4.195-4.92,4.195h-8.431c2.776-.383,3.826-3.1,4.219-4.195l6.641-18.72c.423-1.183,1.63-4.2,4.921-4.2h8.431C468.316,1952.049,467.266,1954.764,466.873,1955.861Z" transform="translate(285.772 1794.971)" fill="none" stroke="#fff" stroke-linejoin="round" stroke-width="0.999"/>
    <path id="Caminho_575" data-name="Caminho 575" d="M361.372,1921.822l6.641-18.721c.423-1.183,1.63-4.194,4.921-4.194h8.431c-2.776.383-3.826,3.1-4.219,4.194l-6.641,18.721c-.423,1.183-1.63,4.195-4.92,4.195h-8.431C359.929,1925.633,360.979,1922.919,361.372,1921.822Z" transform="translate(329.395 1820.854)" fill="none" stroke="#fff" stroke-linejoin="round" stroke-width="0.999"/>
    <path id="Caminho_576" data-name="Caminho 576" d="M361.372,1921.822l6.641-18.721c.423-1.183,1.63-4.194,4.921-4.194h8.431c-2.776.383-3.826,3.1-4.219,4.194l-6.641,18.721c-.423,1.183-1.63,4.195-4.92,4.195h-8.431C359.929,1925.633,360.979,1922.919,361.372,1921.822Z" transform="translate(300.413 1820.854)" fill="none" stroke="#fff" stroke-linejoin="round" stroke-width="0.999"/>
    <path id="Caminho_577" data-name="Caminho 577" d="M361.372,1921.822l6.641-18.721c.423-1.183,1.63-4.194,4.921-4.194h8.431c-2.776.383-3.826,3.1-4.219,4.194l-6.641,18.721c-.423,1.183-1.63,4.195-4.92,4.195h-8.431C359.929,1925.633,360.979,1922.919,361.372,1921.822Z" transform="translate(270.222 1820.854)" fill="none" stroke="#fff" stroke-linejoin="round" stroke-width="0.999"/>
    <path id="Caminho_578" data-name="Caminho 578" d="M361.372,1921.822l6.641-18.721c.423-1.183,1.63-4.194,4.921-4.194h8.431c-2.776.383-3.826,3.1-4.219,4.194l-6.641,18.721c-.423,1.183-1.63,4.195-4.92,4.195h-8.431C359.929,1925.633,360.979,1922.919,361.372,1921.822Z" transform="translate(240.836 1820.854)" fill="none" stroke="#fff" stroke-linejoin="round" stroke-width="0.999"/>
    <path id="Caminho_579" data-name="Caminho 579" d="M407.055,1921.822l-6.641-18.721c-.423-1.183-1.63-4.194-4.921-4.194h-8.431c2.776.383,3.826,3.1,4.219,4.194l6.641,18.721c.423,1.183,1.63,4.195,4.921,4.195h8.431C408.5,1925.633,407.447,1922.919,407.055,1921.822Z" transform="translate(314.854 1820.854)" fill="none" stroke="#fff" stroke-linejoin="round" stroke-width="0.999"/>
    <path id="Caminho_580" data-name="Caminho 580" d="M407.055,1921.822l-6.641-18.721c-.423-1.183-1.63-4.194-4.921-4.194h-8.431c2.776.383,3.826,3.1,4.219,4.194l6.641,18.721c.423,1.183,1.63,4.195,4.921,4.195h8.431C408.5,1925.633,407.447,1922.919,407.055,1921.822Z" transform="translate(285.872 1820.854)" fill="none" stroke="#fff" stroke-linejoin="round" stroke-width="0.999"/>
    <path id="Caminho_581" data-name="Caminho 581" d="M407.055,1921.822l-6.641-18.721c-.423-1.183-1.63-4.194-4.921-4.194h-8.431c2.776.383,3.826,3.1,4.219,4.194l6.641,18.721c.423,1.183,1.63,4.195,4.921,4.195h8.431C408.5,1925.633,407.447,1922.919,407.055,1921.822Z" transform="translate(255.681 1820.854)" fill="none" stroke="#fff" stroke-linejoin="round" stroke-width="0.999"/>
    <path id="Caminho_582" data-name="Caminho 582" d="M407.055,1921.822l-6.641-18.721c-.423-1.183-1.63-4.194-4.921-4.194h-8.431c2.776.383,3.826,3.1,4.219,4.194l6.641,18.721c.423,1.183,1.63,4.195,4.921,4.195h8.431C408.5,1925.633,407.447,1922.919,407.055,1921.822Z" transform="translate(226.295 1820.854)" fill="none" stroke="#fff" stroke-linejoin="round" stroke-width="0.999"/>
    <path id="Caminho_583" data-name="Caminho 583" d="M436.964,1974.581l-6.641-18.72c-.423-1.183-1.629-4.2-4.92-4.2h-8.432c2.776.383,3.827,3.1,4.219,4.2l6.641,18.72c.423,1.183,1.629,4.195,4.92,4.195h8.432C438.407,1978.393,437.356,1975.678,436.964,1974.581Z" transform="translate(300.313 1794.971)" fill="none" stroke="#fff" stroke-linejoin="round" stroke-width="0.999"/>
    <line id="Linha_54" data-name="Linha 54" x2="299.635" transform="translate(756.865 3746.754)" fill="none" stroke="#fff" stroke-linejoin="round" stroke-width="1"/>
    <path id="Caminho_584" data-name="Caminho 584" d="M97.667,0H474.656" transform="translate(123.333 3746.773)" fill="none" stroke="#fff" stroke-width="1"/>
    <path id="Caminho_585" data-name="Caminho 585" d="M361.372,1955.861l6.641,18.72c.423,1.183,1.63,4.195,4.921,4.195h8.431c-2.776-.383-3.826-3.1-4.219-4.195l-6.641-18.72c-.423-1.183-1.63-4.2-4.92-4.2h-8.431C359.929,1952.049,360.979,1954.764,361.372,1955.861Z" transform="translate(329.395 1794.971)" fill="none" stroke="#fff" stroke-linejoin="round" stroke-width="0.999"/>
    <path id="Caminho_586" data-name="Caminho 586" d="M361.372,1955.861l6.641,18.72c.423,1.183,1.63,4.195,4.921,4.195h8.431c-2.776-.383-3.826-3.1-4.219-4.195l-6.641-18.72c-.423-1.183-1.63-4.2-4.92-4.2h-8.431C359.929,1952.049,360.979,1954.764,361.372,1955.861Z" transform="translate(300.413 1794.971)" fill="none" stroke="#fff" stroke-linejoin="round" stroke-width="0.999"/>
    <path id="Caminho_587" data-name="Caminho 587" d="M361.372,1955.861l6.641,18.72c.423,1.183,1.63,4.195,4.921,4.195h8.431c-2.776-.383-3.826-3.1-4.219-4.195l-6.641-18.72c-.423-1.183-1.63-4.2-4.92-4.2h-8.431C359.929,1952.049,360.979,1954.764,361.372,1955.861Z" transform="translate(270.222 1794.971)" fill="none" stroke="#fff" stroke-linejoin="round" stroke-width="0.999"/>
    <path id="Caminho_588" data-name="Caminho 588" d="M361.372,1955.861l6.641,18.72c.423,1.183,1.63,4.195,4.921,4.195h8.431c-2.776-.383-3.826-3.1-4.219-4.195l-6.641-18.72c-.423-1.183-1.63-4.2-4.92-4.2h-8.431C359.929,1952.049,360.979,1954.764,361.372,1955.861Z" transform="translate(240.836 1794.971)" fill="none" stroke="#fff" stroke-linejoin="round" stroke-width="0.999"/>
  </g>
</svg>
