<svg id="Layer_1" data-name="Layer 1" xmlns="http://www.w3.org/2000/svg" viewBox="0 0 852 350"><defs><style>.cls-1{fill:none;}.cls-1,.cls-2{stroke:#d1a687;stroke-linejoin:round;stroke-width:1.5px;}.cls-2{fill:#484b4f;}</style></defs><title>02_AramCapital_Site_BasesSvg</title><line id="Line_28" data-name="Line 28" class="cls-1" x1="817.85" y1="279.31" x2="852" y2="279.31"/><line id="Line_29" data-name="Line 29" class="cls-1" y1="70.69" x2="36.74" y2="70.69"/><g id="Group_235" data-name="Group 235"><path id="Path_483" data-name="Path 483" class="cls-2" d="M771.21,199l-17-48c-1.09-3-4.18-10.76-12.62-10.76H719.92c7.12,1,9.82,8,10.82,10.76l17,48c1.08,3,4.18,10.76,12.62,10.76H782C774.91,208.79,772.21,201.83,771.21,199Z"/><path id="Path_484" data-name="Path 484" class="cls-2" d="M691.63,199l17-48c1.09-3,4.18-10.76,12.62-10.76h21.63c-7.12,1-9.81,8-10.82,10.76l-17,48c-1.08,3-4.18,10.76-12.62,10.76H680.8C687.93,208.79,690.62,201.83,691.63,199Z"/></g><g id="Group_236" data-name="Group 236"><path id="Path_485" data-name="Path 485" class="cls-2" d="M447.09,199l17-48c1.09-3,4.18-10.76,12.62-10.76h21.63c-7.12,1-9.82,8-10.82,10.76l-17,48c-1.08,3-4.18,10.76-12.62,10.76H436.27C443.39,208.79,446.09,201.83,447.09,199Z"/></g><g id="Group_237" data-name="Group 237"><path id="Path_486" data-name="Path 486" class="cls-2" d="M565.44,129.47l-17-48c-1.08-3-4.18-10.76-12.62-10.76H514.15c7.13,1,9.82,7.94,10.83,10.76l17,48c1.09,3,4.18,10.76,12.63,10.76h21.62C569.14,139.25,566.44,132.28,565.44,129.47Z"/><path id="Path_487" data-name="Path 487" class="cls-2" d="M485.86,129.47l17-48c1.08-3,4.18-10.76,12.62-10.76h21.63c-7.13,1-9.82,7.94-10.83,10.76l-17,48c-1.09,3-4.18,10.76-12.62,10.76H475C482.16,139.25,484.85,132.28,485.86,129.47Z"/></g><g id="Group_238" data-name="Group 238"><path id="Path_488" data-name="Path 488" class="cls-2" d="M284.28,199l17-48c1.08-3,4.18-10.76,12.62-10.76h21.63c-7.13,1-9.82,8-10.83,10.76l-17,48c-1.09,3-4.18,10.76-12.62,10.76H273.46C280.58,208.79,283.27,201.83,284.28,199Z"/></g><g id="Group_239" data-name="Group 239"><path id="Path_489" data-name="Path 489" class="cls-2" d="M607.79,199l-17-48c-1.08-3-4.18-10.76-12.62-10.76H556.5c7.12,1,9.82,8,10.82,10.76l17,48c1.08,3,4.18,10.76,12.62,10.76h21.63C611.49,208.79,608.79,201.83,607.79,199Z"/><path id="Path_490" data-name="Path 490" class="cls-2" d="M528.21,199l17-48c1.09-3,4.18-10.76,12.63-10.76h21.62c-7.12,1-9.81,8-10.82,10.76l-17,48c-1.09,3-4.19,10.76-12.63,10.76H517.39C524.51,208.79,527.2,201.83,528.21,199Z"/></g><path id="Path_491" data-name="Path 491" class="cls-2" d="M607.79,81.45l-17,48c-1.08,3-4.18,10.76-12.62,10.76H556.5c7.12-1,9.82-7.95,10.82-10.76l17-48c1.09-3,4.18-10.76,12.62-10.76h21.63C611.49,71.67,608.79,78.63,607.79,81.45Z"/><g id="Group_240" data-name="Group 240"><path id="Path_492" data-name="Path 492" class="cls-2" d="M689.91,59.93l-17-48c-1.09-3-4.18-10.76-12.62-10.76H638.62c7.12,1,9.82,7.94,10.82,10.76l17,48c1.09,3,4.18,10.76,12.62,10.76h21.63C693.61,69.71,690.91,62.74,689.91,59.93Z"/><path id="Path_493" data-name="Path 493" class="cls-2" d="M610.33,59.93l17-48c1.09-3,4.18-10.76,12.62-10.76h21.63c-7.12,1-9.81,7.94-10.82,10.76l-17,48c-1.08,3-4.18,10.76-12.62,10.76H599.5C606.63,69.71,609.32,62.74,610.33,59.93Z"/></g><g id="Group_241" data-name="Group 241"><path id="Path_494" data-name="Path 494" class="cls-2" d="M729,290.07l-17,48c-1.08,3-4.18,10.76-12.62,10.76H677.7c7.13-1,9.82-7.94,10.83-10.76l17-48c1.09-3,4.18-10.76,12.62-10.76h21.63C732.69,280.29,730,287.26,729,290.07Z"/><path id="Path_495" data-name="Path 495" class="cls-2" d="M649.41,290.07l17,48c1.08,3,4.18,10.76,12.62,10.76H700.7c-7.13-1-9.82-7.94-10.83-10.76l-17-48c-1.09-3-4.18-10.76-12.62-10.76H638.59C645.71,280.29,648.4,287.26,649.41,290.07Z"/></g><g id="Group_242" data-name="Group 242"><path id="Path_496" data-name="Path 496" class="cls-2" d="M526.67,220.53l-17,48c-1.09,3-4.18,10.76-12.63,10.76H475.39c7.12-1,9.81-7.94,10.82-10.76l17-48c1.09-3,4.19-10.76,12.63-10.76h21.62C530.37,210.75,527.68,217.72,526.67,220.53Z"/><path id="Path_497" data-name="Path 497" class="cls-2" d="M447.09,220.53l17,48c1.09,3,4.18,10.76,12.62,10.76h21.63c-7.12-1-9.82-7.94-10.82-10.76l-17-48c-1.08-3-4.18-10.76-12.62-10.76H436.27C443.39,210.75,446.09,217.72,447.09,220.53Z"/></g><g id="Group_243" data-name="Group 243"><path id="Path_498" data-name="Path 498" class="cls-2" d="M610.33,220.53l17,48c1.09,3,4.18,10.76,12.62,10.76h21.63c-7.12-1-9.81-7.94-10.82-10.76l-17-48c-1.08-3-4.18-10.76-12.62-10.76H599.5C606.63,210.75,609.32,217.72,610.33,220.53Z"/><path id="Path_499" data-name="Path 499" class="cls-2" d="M689.91,220.53l-17,48c-1.09,3-4.18,10.76-12.62,10.76H638.62c7.12-1,9.82-7.94,10.82-10.76l17-48c1.09-3,4.18-10.76,12.62-10.76h21.63C693.61,210.75,690.91,217.72,689.91,220.53Z"/></g><path id="Path_500" data-name="Path 500" class="cls-2" d="M403,129.47l-17-48c-1.08-3-4.18-10.76-12.62-10.76H351.67c7.12,1,9.81,7.94,10.82,10.76l17,48c1.08,3,4.18,10.76,12.62,10.76h21.63C406.66,139.25,404,132.28,403,129.47Z"/><g id="Group_244" data-name="Group 244"><path id="Path_501" data-name="Path 501" class="cls-2" d="M244.78,129.47l-17-48c-1.08-3-4.18-10.76-12.62-10.76H193.49c7.12,1,9.82,7.94,10.83,10.76l17,48c1.09,3,4.18,10.76,12.62,10.76H255.6C248.48,139.25,245.79,132.28,244.78,129.47Z"/></g><path id="Path_502" data-name="Path 502" class="cls-2" d="M164.75,129.47l17-48c1.08-3,4.18-10.76,12.62-10.76H216c-7.13,1-9.82,7.94-10.83,10.76l-17,48c-1.09,3-4.18,10.76-12.62,10.76H153.93C161.05,139.25,163.74,132.28,164.75,129.47Z"/><g id="Group_245" data-name="Group 245"><path id="Path_503" data-name="Path 503" class="cls-2" d="M123.64,81.45l-17,48c-1.08,3-4.18,10.76-12.62,10.76H72.36c7.12-1,9.81-7.95,10.82-10.76l17-48c1.09-3,4.19-10.76,12.63-10.76h21.62C127.34,71.67,124.65,78.63,123.64,81.45Z"/></g><path id="Path_504" data-name="Path 504" class="cls-2" d="M43.71,81.45l17,48c1.08,3,4.18,10.76,12.62,10.76H95c-7.12-1-9.82-7.95-10.83-10.76l-17-48c-1.09-3-4.18-10.76-12.62-10.76H32.89C40,71.67,42.7,78.63,43.71,81.45Z"/><g id="Group_246" data-name="Group 246"><path id="Path_505" data-name="Path 505" class="cls-2" d="M164.82,151l-17,48c-1.09,3-4.18,10.76-12.62,10.76H113.53c7.12-1,9.82-7.94,10.82-10.76l17-48c1.09-3,4.18-10.76,12.62-10.76h21.63C168.52,141.21,165.82,148.17,164.82,151Z"/></g><path id="Path_506" data-name="Path 506" class="cls-2" d="M84.18,151l17,48c1.09,3,4.19,10.76,12.63,10.76h21.62c-7.12-1-9.81-7.94-10.82-10.76l-17-48c-1.09-3-4.19-10.76-12.63-10.76H73.36C80.48,141.21,83.17,148.18,84.18,151Z"/><g id="Group_247" data-name="Group 247"><path id="Path_507" data-name="Path 507" class="cls-2" d="M205.21,220.53l-17,48c-1.09,3-4.18,10.76-12.62,10.76H153.93c7.12-1,9.81-7.94,10.82-10.76l17-48c1.08-3,4.18-10.76,12.62-10.76H216C208.91,210.75,206.22,217.72,205.21,220.53Z"/></g><path id="Path_508" data-name="Path 508" class="cls-2" d="M124.35,220.53l17,48c1.09,3,4.18,10.76,12.62,10.76h21.63c-7.12-1-9.82-7.94-10.82-10.76l-17-48c-1.09-3-4.18-10.76-12.62-10.76H113.53C120.65,210.75,123.35,217.72,124.35,220.53Z"/><g id="Group_248" data-name="Group 248"><path id="Path_509" data-name="Path 509" class="cls-2" d="M201.66,59.93l-17-48c-1.09-3-4.18-10.76-12.62-10.76H150.37c7.12,1,9.82,7.94,10.82,10.76l17,48c1.09,3,4.18,10.76,12.62,10.76h21.63C205.36,69.71,202.66,62.74,201.66,59.93Z"/></g><path id="Path_510" data-name="Path 510" class="cls-2" d="M122.63,59.93l17-48c1.09-3,4.18-10.76,12.62-10.76h21.63c-7.12,1-9.81,7.94-10.82,10.76l-17,48c-1.08,3-4.18,10.76-12.62,10.76H111.8C118.92,69.71,121.62,62.74,122.63,59.93Z"/><path id="Path_511" data-name="Path 511" class="cls-2" d="M445.31,199l-17-48c-1.09-3-4.18-10.76-12.62-10.76H394c7.12,1,9.82,8,10.83,10.76l17,48c1.09,3,4.18,10.76,12.62,10.76h21.63C449,208.79,446.31,201.83,445.31,199Z"/><g id="Group_249" data-name="Group 249"><path id="Path_512" data-name="Path 512" class="cls-2" d="M810.32,268.55l-17-48c-1.09-3-4.18-10.76-12.63-10.76H759c7.12,1,9.81,7.95,10.82,10.76l17,48c1.08,3,4.18,10.76,12.62,10.76h21.63C814,278.33,811.33,271.37,810.32,268.55Z"/><path id="Path_513" data-name="Path 513" class="cls-2" d="M730.74,268.55l17-48c1.08-3,4.18-10.76,12.62-10.76H782c-7.12,1-9.82,7.95-10.82,10.76l-17,48c-1.09,3-4.18,10.76-12.62,10.76H719.92C727,278.33,729.74,271.37,730.74,268.55Z"/></g><path id="Path_514" data-name="Path 514" class="cls-2" d="M732.09,129.47l-17-48c-1.08-3-4.18-10.76-12.62-10.76H680.8c7.13,1,9.82,7.94,10.83,10.76l17,48c1.09,3,4.18,10.76,12.62,10.76h21.63C735.79,139.25,733.1,132.28,732.09,129.47Z"/><g id="Group_250" data-name="Group 250"><path id="Path_515" data-name="Path 515" class="cls-2" d="M323.05,129.47l17-48c1.09-3,4.18-10.76,12.63-10.76h21.62c-7.12,1-9.81,7.94-10.82,10.76l-17,48c-1.08,3-4.18,10.76-12.62,10.76H312.22C319.35,139.25,322,132.28,323.05,129.47Z"/></g><path id="Path_516" data-name="Path 516" class="cls-2" d="M282.9,199l-17-48c-1.09-3-4.18-10.76-12.62-10.76H231.61c7.12,1,9.82,8,10.82,10.76l17,48c1.09,3,4.18,10.76,12.62,10.76h21.63C286.6,208.79,283.9,201.83,282.9,199Z"/><path id="Path_517" data-name="Path 517" class="cls-2" d="M203.32,199l17-48c1.09-3,4.18-10.76,12.62-10.76H254.6c-7.12,1-9.81,8-10.82,10.76l-17,48c-1.08,3-4.18,10.76-12.62,10.76H192.49C199.61,208.79,202.31,201.83,203.32,199Z"/></svg>