<svg xmlns="http://www.w3.org/2000/svg" width="228.5" height="54.985" viewBox="0 0 228.5 54.985">
  <g id="Grupo_420" data-name="Grupo 420" transform="translate(-231 -2777.261)">
    <path id="Caminho_700" data-name="Caminho 700" d="M407.055,1955.861l-6.641,18.72c-.423,1.183-1.63,4.195-4.921,4.195h-8.431c2.776-.383,3.826-3.1,4.219-4.195l6.641-18.72c.423-1.183,1.63-4.2,4.921-4.2h8.431C408.5,1952.049,407.447,1954.764,407.055,1955.861Z" transform="translate(-48.319 852.971)" fill="none" stroke="#484b4f" stroke-linejoin="round" stroke-width="0.999"/>
    <path id="Caminho_701" data-name="Caminho 701" d="M407.055,1955.861l-6.641,18.72c-.423,1.183-1.63,4.195-4.921,4.195h-8.431c2.776-.383,3.826-3.1,4.219-4.195l6.641-18.72c.423-1.183,1.63-4.2,4.921-4.2h8.431C408.5,1952.049,407.447,1954.764,407.055,1955.861Z" transform="translate(-77.705 852.971)" fill="none" stroke="#484b4f" stroke-linejoin="round" stroke-width="0.999"/>
    <path id="Caminho_702" data-name="Caminho 702" d="M361.372,1921.822l6.641-18.721c.423-1.183,1.63-4.194,4.921-4.194h8.431c-2.776.383-3.826,3.1-4.219,4.194l-6.641,18.721c-.423,1.183-1.63,4.195-4.92,4.195h-8.431C359.929,1925.633,360.979,1922.919,361.372,1921.822Z" transform="translate(-33.778 878.854)" fill="none" stroke="#484b4f" stroke-linejoin="round" stroke-width="0.999"/>
    <path id="Caminho_703" data-name="Caminho 703" d="M361.372,1921.822l6.641-18.721c.423-1.183,1.63-4.194,4.921-4.194h8.431c-2.776.383-3.826,3.1-4.219,4.194l-6.641,18.721c-.423,1.183-1.63,4.195-4.92,4.195h-8.431C359.929,1925.633,360.979,1922.919,361.372,1921.822Z" transform="translate(-63.164 878.854)" fill="none" stroke="#484b4f" stroke-linejoin="round" stroke-width="0.999"/>
    <path id="Caminho_704" data-name="Caminho 704" d="M407.055,1921.822l-6.641-18.721c-.423-1.183-1.63-4.194-4.921-4.194h-8.431c2.776.383,3.826,3.1,4.219,4.194l6.641,18.721c.423,1.183,1.63,4.195,4.921,4.195h8.431C408.5,1925.633,407.447,1922.919,407.055,1921.822Z" transform="translate(-48.319 878.854)" fill="none" stroke="#484b4f" stroke-linejoin="round" stroke-width="0.999"/>
    <path id="Caminho_705" data-name="Caminho 705" d="M407.055,1921.822l-6.641-18.721c-.423-1.183-1.63-4.194-4.921-4.194h-8.431c2.776.383,3.826,3.1,4.219,4.194l6.641,18.721c.423,1.183,1.63,4.195,4.921,4.195h8.431C408.5,1925.633,407.447,1922.919,407.055,1921.822Z" transform="translate(-77.705 878.854)" fill="none" stroke="#484b4f" stroke-linejoin="round" stroke-width="0.999"/>
    <path id="Caminho_706" data-name="Caminho 706" d="M354.667,0h62.99" transform="translate(-123.667 2804.773)" fill="none" stroke="#484b4f" stroke-width="1"/>
    <path id="Caminho_707" data-name="Caminho 707" d="M361.372,1955.861l6.641,18.72c.423,1.183,1.63,4.195,4.921,4.195h8.431c-2.776-.383-3.826-3.1-4.219-4.195l-6.641-18.72c-.423-1.183-1.63-4.2-4.92-4.2h-8.431C359.929,1952.049,360.979,1954.764,361.372,1955.861Z" transform="translate(-33.778 852.971)" fill="none" stroke="#484b4f" stroke-linejoin="round" stroke-width="0.999"/>
    <path id="Caminho_708" data-name="Caminho 708" d="M361.372,1955.861l6.641,18.72c.423,1.183,1.63,4.195,4.921,4.195h8.431c-2.776-.383-3.826-3.1-4.219-4.195l-6.641-18.72c-.423-1.183-1.63-4.2-4.92-4.2h-8.431C359.929,1952.049,360.979,1954.764,361.372,1955.861Z" transform="translate(-63.164 852.971)" fill="none" stroke="#484b4f" stroke-linejoin="round" stroke-width="0.999"/>
    <line id="Linha_78" data-name="Linha 78" x2="101.635" transform="translate(357.865 2804.754)" fill="none" stroke="#484b4f" stroke-linejoin="round" stroke-width="1"/>
  </g>
</svg>
