<svg id="Layer_1" data-name="Layer 1" xmlns="http://www.w3.org/2000/svg" viewBox="0 0 397 230"><defs><style>.cls-1,.cls-2{fill:#484b4f;stroke:#d1a687;stroke-linejoin:round;stroke-width:1.5px;}.cls-1{stroke-linecap:round;}</style></defs><title>02_AramCapital_Site_BasesSvg</title><path id="Path_518" data-name="Path 518" class="cls-1" d="M277.79,13.72l18.49,52.11c1.17,3.29,4.53,11.67,13.7,11.67h23.46c-7.72-1.06-10.65-8.62-11.74-11.67L303.21,13.72C302,10.42,298.68,2,289.51,2H266C273.77,3.1,276.7,10.66,277.79,13.72Z"/><path id="Path_519" data-name="Path 519" class="cls-1" d="M276.79,141.29l18.49-52.11c1.17-3.3,4.53-11.68,13.7-11.68h23.46c-7.72,1.07-10.65,8.62-11.74,11.68l-18.49,52.11C301,144.58,297.68,153,288.51,153H265C272.77,151.9,275.7,144.34,276.79,141.29Z"/><path id="Path_520" data-name="Path 520" class="cls-1" d="M221.88,216.76l18.48-52.12c1.18-3.29,4.54-11.67,13.7-11.67h23.47c-7.73,1.06-10.65,8.62-11.74,11.67L247.3,216.76c-1.18,3.29-4.54,11.67-13.7,11.67H210.13C217.86,227.37,220.78,219.81,221.88,216.76Z"/><path id="Path_521" data-name="Path 521" class="cls-1" d="M97.13,164.64,78.64,216.76c-1.18,3.29-4.54,11.67-13.7,11.67H41.47c7.73-1.06,10.65-8.62,11.75-11.67L71.7,164.64C72.88,161.35,76.24,153,85.4,153h23.47C101.14,154,98.22,161.59,97.13,164.64Z"/><path id="Path_522" data-name="Path 522" class="cls-1" d="M121.33,164.64l-18.49,52.12c-1.18,3.29-4.53,11.67-13.7,11.67H65.67c7.73-1.06,10.65-8.62,11.75-11.67L95.9,164.64c1.18-3.29,4.54-11.67,13.7-11.67h23.47C125.35,154,122.42,161.59,121.33,164.64Z"/><path id="Path_523" data-name="Path 523" class="cls-1" d="M145.53,164.64l-18.48,52.12c-1.18,3.29-4.54,11.67-13.7,11.67H89.88c7.72-1.06,10.65-8.62,11.74-11.67l18.49-52.12c1.18-3.29,4.53-11.67,13.7-11.67h23.47C149.55,154,146.62,161.59,145.53,164.64Z"/><path id="Path_524" data-name="Path 524" class="cls-1" d="M194.58,89.18l-18.49,52.11c-1.17,3.29-4.53,11.68-13.7,11.68H138.93c7.72-1.07,10.65-8.62,11.74-11.68l18.49-52.11c1.17-3.3,4.53-11.68,13.7-11.68h23.46C198.6,78.57,195.67,86.12,194.58,89.18Z"/><path id="Path_525" data-name="Path 525" class="cls-1" d="M218.78,89.18,200.3,141.29c-1.18,3.29-4.54,11.68-13.7,11.68H163.13c7.73-1.07,10.65-8.62,11.74-11.68l18.49-52.11c1.18-3.3,4.54-11.68,13.7-11.68h23.47C222.8,78.57,219.88,86.12,218.78,89.18Z"/><path id="Path_526" data-name="Path 526" class="cls-1" d="M241.58,13.72,223.09,65.83c-1.17,3.29-4.53,11.67-13.7,11.67H185.93c7.72-1.06,10.65-8.62,11.74-11.67l18.49-52.11C217.33,10.42,220.69,2,229.86,2h23.47C245.6,3.1,242.67,10.66,241.58,13.72Z"/><path id="Path_527" data-name="Path 527" class="cls-1" d="M266.78,13.72,248.3,65.83c-1.18,3.29-4.54,11.67-13.7,11.67H211.13c7.73-1.06,10.65-8.62,11.74-11.67l18.49-52.11C242.54,10.42,245.9,2,255.06,2h23.47C270.8,3.1,267.88,10.66,266.78,13.72Z"/><path id="Path_601" data-name="Path 601" class="cls-2" d="M333.44,77.5h62"/><path id="Path_601-2" data-name="Path 601" class="cls-2" d="M1.55,228.43H222.69"/></svg>