<svg id="Layer_1" data-name="Layer 1" xmlns="http://www.w3.org/2000/svg" viewBox="0 0 542.58 56"><defs><style>.cls-1{fill:none;stroke:#484b4f;stroke-linejoin:round;}</style></defs><title>02_AramCapital_Site_BasesSvg</title><path id="Path_434" data-name="Path 434" class="cls-1" d="M444.25,23.81l6.64-18.73c.42-1.18,1.63-4.19,4.92-4.19h8.43c-2.78.38-3.83,3.1-4.22,4.19l-6.64,18.73C453,25,451.75,28,448.46,28H440C442.8,27.62,443.86,24.9,444.25,23.81Z"/><path id="Path_435" data-name="Path 435" class="cls-1" d="M475.54,23.81,468.9,5.08C468.47,3.9,467.27.89,464,.89h-8.44c2.78.38,3.83,3.1,4.22,4.19l6.64,18.73C466.83,25,468,28,471.33,28h8.43C477,27.62,475.93,24.9,475.54,23.81Z"/><path id="Path_438" data-name="Path 438" class="cls-1" d="M413.21,23.81l6.64-18.73c.42-1.18,1.63-4.19,4.92-4.19h8.43c-2.77.38-3.82,3.1-4.22,4.19l-6.64,18.73C421.92,25,420.71,28,417.42,28H409C411.77,27.62,412.82,24.9,413.21,23.81Z"/><path id="Path_529" data-name="Path 529" class="cls-1" d="M382.17,23.81l6.64-18.73c.43-1.18,1.63-4.19,4.92-4.19h8.44c-2.78.38-3.83,3.1-4.22,4.19l-6.64,18.73C390.88,25,389.68,28,386.39,28H378C380.73,27.62,381.78,24.9,382.17,23.81Z"/><path id="Path_533" data-name="Path 533" class="cls-1" d="M351.14,23.81l6.64-18.73C358.2,3.9,359.41.89,362.7.89h8.43c-2.78.38-3.83,3.1-4.22,4.19l-6.64,18.73C359.85,25,358.64,28,355.35,28h-8.43C349.69,27.62,350.74,24.9,351.14,23.81Z"/><path id="Path_536" data-name="Path 536" class="cls-1" d="M320.1,23.81l6.64-18.73c.42-1.18,1.63-4.19,4.92-4.19h8.43c-2.77.38-3.82,3.1-4.22,4.19l-6.64,18.73C328.81,25,327.6,28,324.31,28h-8.43C318.66,27.62,319.71,24.9,320.1,23.81Z"/><path id="Path_439" data-name="Path 439" class="cls-1" d="M444.5,23.81,437.86,5.08c-.42-1.18-1.63-4.19-4.92-4.19h-8.43c2.77.38,3.82,3.1,4.22,4.19l6.64,18.73C435.79,25,437,28,440.29,28h8.43C446,27.62,444.89,24.9,444.5,23.81Z"/><path id="Path_528" data-name="Path 528" class="cls-1" d="M413.47,23.81,406.82,5.08C406.4,3.9,405.19.89,401.9.89h-8.43c2.78.38,3.83,3.1,4.22,4.19l6.64,18.73C404.76,25,406,28,409.25,28h8.43C414.91,27.62,413.86,24.9,413.47,23.81Z"/><path id="Path_532" data-name="Path 532" class="cls-1" d="M382.43,23.81,375.79,5.08c-.43-1.18-1.63-4.19-4.92-4.19h-8.43c2.77.38,3.82,3.1,4.21,4.19l6.65,18.73c.42,1.18,1.63,4.19,4.92,4.19h8.43C383.87,27.62,382.82,24.9,382.43,23.81Z"/><path id="Path_537" data-name="Path 537" class="cls-1" d="M351.39,23.81,344.75,5.08c-.42-1.18-1.63-4.19-4.92-4.19H331.4c2.78.38,3.83,3.1,4.22,4.19l6.64,18.73c.42,1.18,1.63,4.19,4.92,4.19h8.43C352.84,27.62,351.78,24.9,351.39,23.81Z"/><path id="Path_434-2" data-name="Path 434" class="cls-1" d="M440,28h8.43c3.29,0,4.5,3,4.92,4.19L460,50.92c.39,1.09,1.44,3.81,4.22,4.19h-8.43c-3.29,0-4.5-3-4.92-4.19l-6.64-18.73C443.86,31.1,442.8,28.38,440,28Z"/><path id="Path_435-2" data-name="Path 435" class="cls-1" d="M479.76,28h-8.43c-3.3,0-4.5,3-4.93,4.19l-6.64,18.73c-.39,1.09-1.44,3.81-4.22,4.19H464c3.29,0,4.49-3,4.92-4.19l6.64-18.73C475.93,31.1,477,28.38,479.76,28Z"/><path id="Path_438-2" data-name="Path 438" class="cls-1" d="M409,28h8.43c3.29,0,4.5,3,4.92,4.19L429,50.92c.4,1.09,1.45,3.81,4.22,4.19h-8.43c-3.29,0-4.5-3-4.92-4.19l-6.64-18.73C412.82,31.1,411.77,28.38,409,28Z"/><path id="Path_529-2" data-name="Path 529" class="cls-1" d="M378,28h8.44c3.29,0,4.49,3,4.92,4.19L398,50.92c.39,1.09,1.44,3.81,4.22,4.19h-8.44c-3.29,0-4.49-3-4.92-4.19l-6.64-18.73C381.78,31.1,380.73,28.38,378,28Z"/><path id="Path_533-2" data-name="Path 533" class="cls-1" d="M346.92,28h8.43c3.29,0,4.5,3,4.92,4.19l6.64,18.73c.39,1.09,1.44,3.81,4.22,4.19H362.7c-3.29,0-4.5-3-4.92-4.19l-6.64-18.73C350.74,31.1,349.69,28.38,346.92,28Z"/><path id="Path_536-2" data-name="Path 536" class="cls-1" d="M315.88,28h8.43c3.29,0,4.5,3,4.92,4.19l6.64,18.73c.4,1.09,1.45,3.81,4.22,4.19h-8.43c-3.29,0-4.5-3-4.92-4.19L320.1,32.19C319.71,31.1,318.66,28.38,315.88,28Z"/><path id="Path_439-2" data-name="Path 439" class="cls-1" d="M448.72,28h-8.43c-3.29,0-4.5,3-4.92,4.19l-6.64,18.73c-.4,1.09-1.45,3.81-4.22,4.19h8.43c3.29,0,4.5-3,4.92-4.19l6.64-18.73C444.89,31.1,446,28.38,448.72,28Z"/><path id="Path_528-2" data-name="Path 528" class="cls-1" d="M417.68,28h-8.43c-3.29,0-4.49,3-4.92,4.19l-6.64,18.73c-.39,1.09-1.44,3.81-4.22,4.19h8.43c3.29,0,4.5-3,4.92-4.19l6.65-18.73C413.86,31.1,414.91,28.38,417.68,28Z"/><path id="Path_532-2" data-name="Path 532" class="cls-1" d="M386.65,28h-8.43c-3.29,0-4.5,3-4.92,4.19l-6.65,18.73c-.39,1.09-1.44,3.81-4.21,4.19h8.43c3.29,0,4.49-3,4.92-4.19l6.64-18.73C382.82,31.1,383.87,28.38,386.65,28Z"/><path id="Path_537-2" data-name="Path 537" class="cls-1" d="M355.61,28h-8.43c-3.29,0-4.5,3-4.92,4.19l-6.64,18.73c-.39,1.09-1.44,3.81-4.22,4.19h8.43c3.29,0,4.5-3,4.92-4.19l6.64-18.73C351.78,31.1,352.84,28.38,355.61,28Z"/><line id="Line_24" data-name="Line 24" class="cls-1" x1="479.76" y1="28" x2="542.58" y2="28"/><path id="Path_447" data-name="Path 447" class="cls-1" d="M0,28H315.88"/></svg>