<svg xmlns="http://www.w3.org/2000/svg" width="43.245" height="302.598" viewBox="0 0 43.245 302.598">
  <g id="Grupo_278" data-name="Grupo 278" transform="translate(1723.398 -236.622) rotate(90)">
    <path id="Caminho_554" data-name="Caminho 554" d="M423.546,1716.361l10.349-29.172c.66-1.844,2.539-6.537,7.667-6.537H454.7c-4.326.6-5.963,4.827-6.575,6.537l-10.349,29.172c-.66,1.844-2.539,6.537-7.667,6.537H416.971C421.3,1722.3,422.934,1718.07,423.546,1716.361Z" transform="translate(-35.94 0)" fill="#484b4f" stroke="#d1a687" stroke-linejoin="round" stroke-width="0.999"/>
    <path id="Caminho_555" data-name="Caminho 555" d="M478.035,1716.361l-10.348-29.172c-.66-1.844-2.54-6.537-7.668-6.537H446.881c4.326.6,5.962,4.827,6.574,6.537l10.349,29.172c.66,1.844,2.54,6.537,7.668,6.537H484.61C480.284,1722.3,478.648,1718.07,478.035,1716.361Z" transform="translate(-41.901 0)" fill="#484b4f" stroke="#d1a687" stroke-linejoin="round" stroke-width="0.999"/>
    <path id="Caminho_556" data-name="Caminho 556" d="M363.728,1716.361l10.348-29.172c.66-1.844,2.54-6.537,7.668-6.537h13.138c-4.326.6-5.962,4.827-6.575,6.537l-10.348,29.172c-.66,1.844-2.54,6.537-7.668,6.537H357.153C361.479,1722.3,363.115,1718.07,363.728,1716.361Z" transform="translate(-24.019 0)" fill="#484b4f" stroke="#d1a687" stroke-linejoin="round" stroke-width="0.999"/>
    <path id="Caminho_557" data-name="Caminho 557" d="M418.217,1716.361l-10.349-29.172c-.66-1.844-2.54-6.537-7.668-6.537H387.062c4.326.6,5.962,4.827,6.575,6.537l10.348,29.172c.66,1.844,2.54,6.537,7.668,6.537h13.138C420.466,1722.3,418.829,1718.07,418.217,1716.361Z" transform="translate(-29.98 0)" fill="#484b4f" stroke="#d1a687" stroke-linejoin="round" stroke-width="0.999"/>
    <line id="Linha_38" data-name="Linha 38" x2="96.511" transform="translate(442.709 1722.898)" fill="none" stroke="#d1a687" stroke-linejoin="round" stroke-width="1"/>
    <line id="Linha_39" data-name="Linha 39" x2="96.511" transform="translate(236.622 1722.898)" fill="none" stroke="#d1a687" stroke-linejoin="round" stroke-width="1"/>
  </g>
</svg>
