<svg xmlns="http://www.w3.org/2000/svg" width="597.798" height="124" viewBox="0 0 597.798 124">
  <g id="Grupo_358" data-name="Grupo 358" transform="translate(0 -2055)">
    <g id="Grupo_18" data-name="Grupo 18" transform="translate(598.274 2179.37) rotate(180)">
      <rect id="Retângulo_132" data-name="Retângulo 132" width="563" height="124" transform="translate(0.477 0.37)" fill="none"/>
      <path id="Caminho_274" data-name="Caminho 274" d="M1397.336,310.213" transform="translate(-833.681 -185.854)" fill="none"/>
    </g>
    <path id="Caminho_434" data-name="Caminho 434" d="M421.19,1921.822l6.641-18.721c.423-1.183,1.629-4.194,4.92-4.194h8.432c-2.776.383-3.827,3.1-4.219,4.194l-6.641,18.721c-.423,1.183-1.629,4.195-4.92,4.195h-8.432C419.747,1925.633,420.8,1922.919,421.19,1921.822Z" transform="translate(518.484 4043.146) rotate(180)" fill="none" stroke="#484b4f" stroke-linejoin="round" stroke-width="0.999"/>
    <path id="Caminho_435" data-name="Caminho 435" d="M466.873,1921.822l-6.641-18.721c-.423-1.183-1.63-4.194-4.92-4.194h-8.431c2.776.383,3.826,3.1,4.219,4.194l6.641,18.721c.423,1.183,1.63,4.195,4.921,4.195h8.431C468.316,1925.633,467.266,1922.919,466.873,1921.822Z" transform="translate(533.025 4043.146) rotate(180)" fill="none" stroke="#484b4f" stroke-linejoin="round" stroke-width="0.999"/>
    <path id="Caminho_436" data-name="Caminho 436" d="M407.055,1955.861l-6.641,18.72c-.423,1.183-1.63,4.195-4.921,4.195h-8.431c2.776-.383,3.826-3.1,4.219-4.195l6.641-18.72c.423-1.183,1.63-4.2,4.921-4.2h8.431C408.5,1952.049,407.447,1954.764,407.055,1955.861Z" transform="translate(503.944 4069.029) rotate(180)" fill="none" stroke="#484b4f" stroke-linejoin="round" stroke-width="0.999"/>
    <path id="Caminho_531" data-name="Caminho 531" d="M407.055,1955.861l-6.641,18.72c-.423,1.183-1.63,4.195-4.921,4.195h-8.431c2.776-.383,3.826-3.1,4.219-4.195l6.641-18.72c.423-1.183,1.63-4.2,4.921-4.2h8.431C408.5,1952.049,407.447,1954.764,407.055,1955.861Z" transform="translate(532.927 4069.029) rotate(180)" fill="none" stroke="#484b4f" stroke-linejoin="round" stroke-width="0.999"/>
    <path id="Caminho_535" data-name="Caminho 535" d="M407.055,1955.861l-6.641,18.72c-.423,1.183-1.63,4.195-4.921,4.195h-8.431c2.776-.383,3.826-3.1,4.219-4.195l6.641-18.72c.423-1.183,1.63-4.2,4.921-4.2h8.431C408.5,1952.049,407.447,1954.764,407.055,1955.861Z" transform="translate(563.116 4069.029) rotate(180)" fill="none" stroke="#484b4f" stroke-linejoin="round" stroke-width="0.999"/>
    <path id="Caminho_539" data-name="Caminho 539" d="M407.055,1955.861l-6.641,18.72c-.423,1.183-1.63,4.195-4.921,4.195h-8.431c2.776-.383,3.826-3.1,4.219-4.195l6.641-18.72c.423-1.183,1.63-4.2,4.921-4.2h8.431C408.5,1952.049,407.447,1954.764,407.055,1955.861Z" transform="translate(592.503 4069.029) rotate(180)" fill="none" stroke="#484b4f" stroke-linejoin="round" stroke-width="0.999"/>
    <path id="Caminho_437" data-name="Caminho 437" d="M466.873,1955.861l-6.641,18.72c-.423,1.183-1.63,4.195-4.92,4.195h-8.431c2.776-.383,3.826-3.1,4.219-4.195l6.641-18.72c.423-1.183,1.63-4.2,4.921-4.2h8.431C468.316,1952.049,467.266,1954.764,466.873,1955.861Z" transform="translate(533.025 4069.029) rotate(180)" fill="none" stroke="#484b4f" stroke-linejoin="round" stroke-width="0.999"/>
    <path id="Caminho_438" data-name="Caminho 438" d="M361.372,1921.822l6.641-18.721c.423-1.183,1.63-4.194,4.921-4.194h8.431c-2.776.383-3.826,3.1-4.219,4.194l-6.641,18.721c-.423,1.183-1.63,4.195-4.92,4.195h-8.431C359.929,1925.633,360.979,1922.919,361.372,1921.822Z" transform="translate(489.403 4043.146) rotate(180)" fill="none" stroke="#484b4f" stroke-linejoin="round" stroke-width="0.999"/>
    <path id="Caminho_529" data-name="Caminho 529" d="M361.372,1921.822l6.641-18.721c.423-1.183,1.63-4.194,4.921-4.194h8.431c-2.776.383-3.826,3.1-4.219,4.194l-6.641,18.721c-.423,1.183-1.63,4.195-4.92,4.195h-8.431C359.929,1925.633,360.979,1922.919,361.372,1921.822Z" transform="translate(518.386 4043.146) rotate(180)" fill="none" stroke="#484b4f" stroke-linejoin="round" stroke-width="0.999"/>
    <path id="Caminho_533" data-name="Caminho 533" d="M361.372,1921.822l6.641-18.721c.423-1.183,1.63-4.194,4.921-4.194h8.431c-2.776.383-3.826,3.1-4.219,4.194l-6.641,18.721c-.423,1.183-1.63,4.195-4.92,4.195h-8.431C359.929,1925.633,360.979,1922.919,361.372,1921.822Z" transform="translate(548.576 4043.146) rotate(180)" fill="none" stroke="#484b4f" stroke-linejoin="round" stroke-width="0.999"/>
    <path id="Caminho_536" data-name="Caminho 536" d="M361.372,1921.822l6.641-18.721c.423-1.183,1.63-4.194,4.921-4.194h8.431c-2.776.383-3.826,3.1-4.219,4.194l-6.641,18.721c-.423,1.183-1.63,4.195-4.92,4.195h-8.431C359.929,1925.633,360.979,1922.919,361.372,1921.822Z" transform="translate(577.962 4043.146) rotate(180)" fill="none" stroke="#484b4f" stroke-linejoin="round" stroke-width="0.999"/>
    <path id="Caminho_439" data-name="Caminho 439" d="M407.055,1921.822l-6.641-18.721c-.423-1.183-1.63-4.194-4.921-4.194h-8.431c2.776.383,3.826,3.1,4.219,4.194l6.641,18.721c.423,1.183,1.63,4.195,4.921,4.195h8.431C408.5,1925.633,407.447,1922.919,407.055,1921.822Z" transform="translate(503.944 4043.146) rotate(180)" fill="none" stroke="#484b4f" stroke-linejoin="round" stroke-width="0.999"/>
    <path id="Caminho_528" data-name="Caminho 528" d="M407.055,1921.822l-6.641-18.721c-.423-1.183-1.63-4.194-4.921-4.194h-8.431c2.776.383,3.826,3.1,4.219,4.194l6.641,18.721c.423,1.183,1.63,4.195,4.921,4.195h8.431C408.5,1925.633,407.447,1922.919,407.055,1921.822Z" transform="translate(532.927 4043.146) rotate(180)" fill="none" stroke="#484b4f" stroke-linejoin="round" stroke-width="0.999"/>
    <path id="Caminho_532" data-name="Caminho 532" d="M407.055,1921.822l-6.641-18.721c-.423-1.183-1.63-4.194-4.921-4.194h-8.431c2.776.383,3.826,3.1,4.219,4.194l6.641,18.721c.423,1.183,1.63,4.195,4.921,4.195h8.431C408.5,1925.633,407.447,1922.919,407.055,1921.822Z" transform="translate(563.116 4043.146) rotate(180)" fill="none" stroke="#484b4f" stroke-linejoin="round" stroke-width="0.999"/>
    <path id="Caminho_537" data-name="Caminho 537" d="M407.055,1921.822l-6.641-18.721c-.423-1.183-1.63-4.194-4.921-4.194h-8.431c2.776.383,3.826,3.1,4.219,4.194l6.641,18.721c.423,1.183,1.63,4.195,4.921,4.195h8.431C408.5,1925.633,407.447,1922.919,407.055,1921.822Z" transform="translate(592.503 4043.146) rotate(180)" fill="none" stroke="#484b4f" stroke-linejoin="round" stroke-width="0.999"/>
    <path id="Caminho_440" data-name="Caminho 440" d="M436.964,1974.581l-6.641-18.72c-.423-1.183-1.629-4.2-4.92-4.2h-8.432c2.776.383,3.827,3.1,4.219,4.2l6.641,18.72c.423,1.183,1.629,4.195,4.92,4.195h8.432C438.407,1978.393,437.356,1975.678,436.964,1974.581Z" transform="translate(518.484 4069.029) rotate(180)" fill="none" stroke="#484b4f" stroke-linejoin="round" stroke-width="0.999"/>
    <line id="Linha_24" data-name="Linha 24" x2="61.933" transform="translate(61.933 2117.246) rotate(180)" fill="none" stroke="#484b4f" stroke-linejoin="round" stroke-width="1"/>
    <path id="Caminho_447" data-name="Caminho 447" d="M97.667,0h319.99" transform="translate(638.464 2117.227) rotate(180)" fill="none" stroke="#484b4f" stroke-width="1"/>
    <path id="Caminho_441" data-name="Caminho 441" d="M361.372,1955.861l6.641,18.72c.423,1.183,1.63,4.195,4.921,4.195h8.431c-2.776-.383-3.826-3.1-4.219-4.195l-6.641-18.72c-.423-1.183-1.63-4.2-4.92-4.2h-8.431C359.929,1952.049,360.979,1954.764,361.372,1955.861Z" transform="translate(489.403 4069.029) rotate(180)" fill="none" stroke="#484b4f" stroke-linejoin="round" stroke-width="0.999"/>
    <path id="Caminho_530" data-name="Caminho 530" d="M361.372,1955.861l6.641,18.72c.423,1.183,1.63,4.195,4.921,4.195h8.431c-2.776-.383-3.826-3.1-4.219-4.195l-6.641-18.72c-.423-1.183-1.63-4.2-4.92-4.2h-8.431C359.929,1952.049,360.979,1954.764,361.372,1955.861Z" transform="translate(518.386 4069.029) rotate(180)" fill="none" stroke="#484b4f" stroke-linejoin="round" stroke-width="0.999"/>
    <path id="Caminho_534" data-name="Caminho 534" d="M361.372,1955.861l6.641,18.72c.423,1.183,1.63,4.195,4.921,4.195h8.431c-2.776-.383-3.826-3.1-4.219-4.195l-6.641-18.72c-.423-1.183-1.63-4.2-4.92-4.2h-8.431C359.929,1952.049,360.979,1954.764,361.372,1955.861Z" transform="translate(548.576 4069.029) rotate(180)" fill="none" stroke="#484b4f" stroke-linejoin="round" stroke-width="0.999"/>
    <path id="Caminho_538" data-name="Caminho 538" d="M361.372,1955.861l6.641,18.72c.423,1.183,1.63,4.195,4.921,4.195h8.431c-2.776-.383-3.826-3.1-4.219-4.195l-6.641-18.72c-.423-1.183-1.63-4.2-4.92-4.2h-8.431C359.929,1952.049,360.979,1954.764,361.372,1955.861Z" transform="translate(577.962 4069.029) rotate(180)" fill="none" stroke="#484b4f" stroke-linejoin="round" stroke-width="0.999"/>
  </g>
</svg>
