<svg id="Layer_1" data-name="Layer 1" xmlns="http://www.w3.org/2000/svg" viewBox="0 0 449 56"><defs><style>.cls-1{fill:none;stroke:#484b4f;stroke-linejoin:round;}</style></defs><title>02_AramCapital_Site_BasesSvg</title><path id="Path_434" data-name="Path 434" class="cls-1" d="M270.93,23.81l6.64-18.73C278,3.9,279.2.89,282.49.89h8.43c-2.78.38-3.83,3.1-4.22,4.19l-6.64,18.73C279.64,25,278.43,28,275.14,28h-8.43C269.48,27.62,270.54,24.9,270.93,23.81Z"/><path id="Path_435" data-name="Path 435" class="cls-1" d="M302.22,23.81,295.58,5.08C295.15,3.9,294,.89,290.66.89h-8.43c2.77.38,3.82,3.1,4.21,4.19l6.65,18.73C293.51,25,294.72,28,298,28h8.43C303.66,27.62,302.61,24.9,302.22,23.81Z"/><path id="Path_438" data-name="Path 438" class="cls-1" d="M239.89,23.81l6.64-18.73C247,3.9,248.16.89,251.45.89h8.43c-2.77.38-3.82,3.1-4.22,4.19L249,23.81C248.6,25,247.39,28,244.1,28h-8.43C238.45,27.62,239.5,24.9,239.89,23.81Z"/><path id="Path_529" data-name="Path 529" class="cls-1" d="M208.85,23.81l6.64-18.73c.43-1.18,1.63-4.19,4.93-4.19h8.43c-2.78.38-3.83,3.1-4.22,4.19L218,23.81C217.56,25,216.36,28,213.07,28h-8.43C207.41,27.62,208.46,24.9,208.85,23.81Z"/><path id="Path_533" data-name="Path 533" class="cls-1" d="M177.82,23.81l6.64-18.73c.42-1.18,1.63-4.19,4.92-4.19h8.43C195,1.27,194,4,193.59,5.08L187,23.81C186.53,25,185.32,28,182,28H173.6C176.37,27.62,177.42,24.9,177.82,23.81Z"/><path id="Path_536" data-name="Path 536" class="cls-1" d="M146.78,23.81l6.64-18.73c.42-1.18,1.63-4.19,4.92-4.19h8.43C164,1.27,163,4,162.55,5.08l-6.64,18.73C155.49,25,154.28,28,151,28h-8.43C145.34,27.62,146.39,24.9,146.78,23.81Z"/><path id="Path_439" data-name="Path 439" class="cls-1" d="M271.18,23.81,264.54,5.08c-.42-1.18-1.63-4.19-4.92-4.19h-8.43C254,1.27,255,4,255.41,5.08l6.64,18.73C262.47,25,263.68,28,267,28h8.43C272.63,27.62,271.57,24.9,271.18,23.81Z"/><path id="Path_528" data-name="Path 528" class="cls-1" d="M240.15,23.81,233.5,5.08c-.42-1.18-1.63-4.19-4.92-4.19h-8.43c2.78.38,3.83,3.1,4.22,4.19L231,23.81c.43,1.18,1.63,4.19,4.92,4.19h8.43C241.59,27.62,240.54,24.9,240.15,23.81Z"/><path id="Path_532" data-name="Path 532" class="cls-1" d="M209.11,23.81,202.47,5.08c-.42-1.18-1.63-4.19-4.92-4.19h-8.43c2.77.38,3.82,3.1,4.22,4.19L200,23.81C200.4,25,201.61,28,204.9,28h8.43C210.55,27.62,209.5,24.9,209.11,23.81Z"/><path id="Path_537" data-name="Path 537" class="cls-1" d="M178.07,23.81,171.43,5.08C171,3.9,169.8.89,166.51.89h-8.43c2.78.38,3.83,3.1,4.22,4.19l6.64,18.73c.42,1.18,1.63,4.19,4.92,4.19h8.43C179.52,27.62,178.47,24.9,178.07,23.81Z"/><path id="Path_434-2" data-name="Path 434" class="cls-1" d="M266.71,28h8.43c3.29,0,4.5,3,4.92,4.19l6.64,18.73c.39,1.09,1.44,3.81,4.22,4.19h-8.43c-3.29,0-4.5-3-4.92-4.19l-6.64-18.73C270.54,31.1,269.48,28.38,266.71,28Z"/><path id="Path_435-2" data-name="Path 435" class="cls-1" d="M306.44,28H298c-3.29,0-4.5,3-4.92,4.19l-6.65,18.73c-.39,1.09-1.44,3.81-4.21,4.19h8.43c3.29,0,4.49-3,4.92-4.19l6.64-18.73C302.61,31.1,303.66,28.38,306.44,28Z"/><path id="Path_438-2" data-name="Path 438" class="cls-1" d="M235.67,28h8.43c3.29,0,4.5,3,4.92,4.19l6.64,18.73c.4,1.09,1.45,3.81,4.22,4.19h-8.43c-3.29,0-4.5-3-4.92-4.19l-6.64-18.73C239.5,31.1,238.45,28.38,235.67,28Z"/><path id="Path_529-2" data-name="Path 529" class="cls-1" d="M204.64,28h8.43c3.29,0,4.49,3,4.92,4.19l6.64,18.73c.39,1.09,1.44,3.81,4.22,4.19h-8.43c-3.3,0-4.5-3-4.93-4.19l-6.64-18.73C208.46,31.1,207.41,28.38,204.64,28Z"/><path id="Path_533-2" data-name="Path 533" class="cls-1" d="M173.6,28H182c3.29,0,4.5,3,4.92,4.19l6.64,18.73c.39,1.09,1.44,3.81,4.22,4.19h-8.43c-3.29,0-4.5-3-4.92-4.19l-6.64-18.73C177.42,31.1,176.37,28.38,173.6,28Z"/><path id="Path_536-2" data-name="Path 536" class="cls-1" d="M142.56,28H151c3.29,0,4.5,3,4.92,4.19l6.64,18.73c.4,1.09,1.45,3.81,4.22,4.19h-8.43c-3.29,0-4.5-3-4.92-4.19l-6.64-18.73C146.39,31.1,145.34,28.38,142.56,28Z"/><path id="Path_439-2" data-name="Path 439" class="cls-1" d="M275.4,28H267c-3.29,0-4.5,3-4.92,4.19l-6.64,18.73C255,52,254,54.73,251.19,55.11h8.43c3.29,0,4.5-3,4.92-4.19l6.64-18.73C271.57,31.1,272.63,28.38,275.4,28Z"/><path id="Path_528-2" data-name="Path 528" class="cls-1" d="M244.36,28h-8.43c-3.29,0-4.49,3-4.92,4.19l-6.64,18.73c-.39,1.09-1.44,3.81-4.22,4.19h8.43c3.29,0,4.5-3,4.92-4.19l6.65-18.73C240.54,31.1,241.59,28.38,244.36,28Z"/><path id="Path_532-2" data-name="Path 532" class="cls-1" d="M213.33,28H204.9c-3.29,0-4.5,3-4.92,4.19l-6.64,18.73c-.4,1.09-1.45,3.81-4.22,4.19h8.43c3.29,0,4.5-3,4.92-4.19l6.64-18.73C209.5,31.1,210.55,28.38,213.33,28Z"/><path id="Path_537-2" data-name="Path 537" class="cls-1" d="M182.29,28h-8.43c-3.29,0-4.5,3-4.92,4.19L162.3,50.92c-.39,1.09-1.44,3.81-4.22,4.19h8.43c3.29,0,4.5-3,4.92-4.19l6.64-18.73C178.47,31.1,179.52,28.38,182.29,28Z"/><line class="cls-1" x1="142.56" y1="28" y2="28"/><line class="cls-1" x1="449" y1="28" x2="306.44" y2="28"/></svg>