<svg xmlns="http://www.w3.org/2000/svg" width="44.996" height="131" viewBox="0 0 44.996 131">
  <g id="Grupo_209" data-name="Grupo 209" transform="translate(-1023.967 -1663.914)">
    <g id="Grupo_208" data-name="Grupo 208" transform="translate(1024.367 1711.689)">
      <path id="Caminho_443" data-name="Caminho 443" d="M1035.849,1798.858l-15.259,5.414c-.965.345-3.419,1.328-3.419,4.011v6.873c.312-2.263,2.525-3.119,3.419-3.439l15.259-5.413c.965-.345,3.419-1.328,3.419-4.011v-6.873C1038.956,1797.682,1036.743,1798.538,1035.849,1798.858Z" transform="translate(-1017.17 -1795.42)" fill="none" stroke="#fff" stroke-linejoin="round" stroke-width="0.8"/>
      <path id="Caminho_444" data-name="Caminho 444" d="M1035.849,1841.823l-15.259-5.414c-.965-.345-3.419-1.328-3.419-4.011v-6.872c.312,2.263,2.525,3.119,3.419,3.439l15.259,5.413c.965.346,3.419,1.329,3.419,4.011v6.873C1038.956,1843,1036.743,1842.143,1035.849,1841.823Z" transform="translate(-1017.17 -1812.916)" fill="none" stroke="#fff" stroke-linejoin="round" stroke-width="0.8"/>
      <path id="Caminho_445" data-name="Caminho 445" d="M1073.349,1798.858l15.26,5.414c.964.345,3.419,1.328,3.419,4.011v6.873c-.312-2.263-2.525-3.119-3.419-3.439l-15.26-5.413c-.965-.345-3.419-1.328-3.419-4.011v-6.873C1070.242,1797.682,1072.455,1798.538,1073.349,1798.858Z" transform="translate(-1047.832 -1795.42)" fill="none" stroke="#fff" stroke-linejoin="round" stroke-width="0.8"/>
      <path id="Caminho_446" data-name="Caminho 446" d="M1073.349,1841.823l15.26-5.414c.964-.345,3.419-1.328,3.419-4.011v-6.872c-.312,2.263-2.525,3.119-3.419,3.439l-15.26,5.413c-.965.346-3.419,1.329-3.419,4.011v6.873C1070.242,1843,1072.455,1842.143,1073.349,1841.823Z" transform="translate(-1047.832 -1812.916)" fill="none" stroke="#fff" stroke-linejoin="round" stroke-width="0.8"/>
    </g>
    <line id="Linha_26" data-name="Linha 26" y2="51.438" transform="translate(1046.465 1663.914)" fill="none" stroke="#fff" stroke-linejoin="round" stroke-width="1"/>
    <line id="Linha_27" data-name="Linha 27" y2="51" transform="translate(1046.465 1743.914)" fill="none" stroke="#fff" stroke-linejoin="round" stroke-width="1"/>
  </g>
</svg>
