<svg xmlns="http://www.w3.org/2000/svg" width="47.028" height="147.942" viewBox="0 0 47.028 147.942">
  <g id="Grupo_279" data-name="Grupo 279" transform="translate(46.578) rotate(90)">
    <path id="Caminho_558" data-name="Caminho 558" d="M3.589,19.5,9.24,3.568C9.6,2.562,10.626,0,13.426,0H20.6c-2.362.326-3.256,2.635-3.589,3.568L11.359,19.5C11,20.5,9.973,23.064,7.173,23.064H0C2.362,22.738,3.255,20.429,3.589,19.5Z" transform="translate(66.09)" fill="#484b4f" stroke="#d1a687" stroke-linejoin="round" stroke-width="0.9"/>
    <path id="Caminho_559" data-name="Caminho 559" d="M17.009,19.5,11.359,3.568C11,2.562,9.972,0,7.173,0H0C2.361.326,3.255,2.635,3.589,3.568L9.239,19.5c.36,1.007,1.387,3.568,4.186,3.568H20.6C18.236,22.738,17.343,20.429,17.009,19.5Z" transform="translate(79.165)" fill="#484b4f" stroke="#d1a687" stroke-linejoin="round" stroke-width="0.9"/>
    <path id="Caminho_560" data-name="Caminho 560" d="M17.009,3.569,11.359,19.5C11,20.5,9.972,23.064,7.173,23.064H0c2.362-.326,3.255-2.635,3.589-3.569L9.239,3.569C9.6,2.562,10.626,0,13.426,0H20.6C18.237.326,17.343,2.636,17.009,3.569Z" transform="translate(53.015 23.064)" fill="#484b4f" stroke="#d1a687" stroke-linejoin="round" stroke-width="0.9"/>
    <path id="Caminho_561" data-name="Caminho 561" d="M17.009,3.569,11.359,19.5C11,20.5,9.972,23.064,7.173,23.064H0c2.361-.326,3.255-2.635,3.589-3.569L9.239,3.569C9.6,2.562,10.626,0,13.426,0H20.6C18.236.326,17.343,2.636,17.009,3.569Z" transform="translate(79.165 23.064)" fill="#484b4f" stroke="#d1a687" stroke-linejoin="round" stroke-width="0.9"/>
    <path id="Caminho_562" data-name="Caminho 562" d="M3.589,19.5,9.239,3.568C9.6,2.562,10.626,0,13.426,0H20.6c-2.362.326-3.255,2.635-3.589,3.568L11.359,19.5C11,20.5,9.972,23.064,7.173,23.064H0C2.362,22.738,3.255,20.429,3.589,19.5Z" transform="translate(39.94)" fill="#484b4f" stroke="#d1a687" stroke-linejoin="round" stroke-width="0.9"/>
    <path id="Caminho_563" data-name="Caminho 563" d="M17.009,19.5,11.359,3.568C11,2.562,9.972,0,7.173,0H0C2.362.326,3.255,2.635,3.589,3.568L9.239,19.5c.36,1.007,1.387,3.568,4.186,3.568H20.6C18.237,22.738,17.343,20.429,17.009,19.5Z" transform="translate(53.015)" fill="#484b4f" stroke="#d1a687" stroke-linejoin="round" stroke-width="0.9"/>
    <path id="Caminho_564" data-name="Caminho 564" d="M17.009,19.5,11.359,3.569C11,2.562,9.973,0,7.173,0H0C2.362.326,3.255,2.636,3.589,3.569L9.24,19.5c.36,1.007,1.386,3.569,4.186,3.569H20.6C18.237,22.739,17.343,20.429,17.009,19.5Z" transform="translate(66.09 23.064)" fill="#484b4f" stroke="#d1a687" stroke-linejoin="round" stroke-width="0.9"/>
    <line id="Linha_40" data-name="Linha 40" x2="48.178" transform="translate(99.764 23.064)" fill="none" stroke="#d1a687" stroke-linejoin="round" stroke-width="0.9"/>
    <line id="Linha_41" data-name="Linha 41" x2="39.94" transform="translate(0 23.064)" fill="none" stroke="#d1a687" stroke-linejoin="round" stroke-width="0.9"/>
    <path id="Caminho_565" data-name="Caminho 565" d="M3.589,3.569,9.239,19.5c.36,1.007,1.387,3.569,4.186,3.569H20.6c-2.362-.326-3.255-2.635-3.589-3.569L11.359,3.569C11,2.562,9.972,0,7.173,0H0C2.362.326,3.255,2.636,3.589,3.569Z" transform="translate(39.94 23.064)" fill="#484b4f" stroke="#d1a687" stroke-linejoin="round" stroke-width="0.9"/>
  </g>
</svg>
