<?xml version="1.0" encoding="utf-8"?>
<svg xmlns="http://www.w3.org/2000/svg" xmlns:xlink="http://www.w3.org/1999/xlink" style="margin: auto; background: none; display: block; shape-rendering: auto;" width="197px" height="197px" viewBox="0 0 100 100" preserveAspectRatio="xMidYMid">
<g transform="rotate(0 50 50)">
  <rect x="49.5" y="27.5" rx="0" ry="0" width="1" height="5" fill="#d1a687">
    <animate attributeName="opacity" values="1;0" keyTimes="0;1" dur="3.3333333333333335s" begin="-3.2222222222222223s" repeatCount="indefinite"></animate>
  </rect>
</g><g transform="rotate(12 50 50)">
  <rect x="49.5" y="27.5" rx="0" ry="0" width="1" height="5" fill="#d1a687">
    <animate attributeName="opacity" values="1;0" keyTimes="0;1" dur="3.3333333333333335s" begin="-3.111111111111111s" repeatCount="indefinite"></animate>
  </rect>
</g><g transform="rotate(24 50 50)">
  <rect x="49.5" y="27.5" rx="0" ry="0" width="1" height="5" fill="#d1a687">
    <animate attributeName="opacity" values="1;0" keyTimes="0;1" dur="3.3333333333333335s" begin="-3s" repeatCount="indefinite"></animate>
  </rect>
</g><g transform="rotate(36 50 50)">
  <rect x="49.5" y="27.5" rx="0" ry="0" width="1" height="5" fill="#d1a687">
    <animate attributeName="opacity" values="1;0" keyTimes="0;1" dur="3.3333333333333335s" begin="-2.888888888888889s" repeatCount="indefinite"></animate>
  </rect>
</g><g transform="rotate(48 50 50)">
  <rect x="49.5" y="27.5" rx="0" ry="0" width="1" height="5" fill="#d1a687">
    <animate attributeName="opacity" values="1;0" keyTimes="0;1" dur="3.3333333333333335s" begin="-2.7777777777777777s" repeatCount="indefinite"></animate>
  </rect>
</g><g transform="rotate(60 50 50)">
  <rect x="49.5" y="27.5" rx="0" ry="0" width="1" height="5" fill="#d1a687">
    <animate attributeName="opacity" values="1;0" keyTimes="0;1" dur="3.3333333333333335s" begin="-2.6666666666666665s" repeatCount="indefinite"></animate>
  </rect>
</g><g transform="rotate(72 50 50)">
  <rect x="49.5" y="27.5" rx="0" ry="0" width="1" height="5" fill="#d1a687">
    <animate attributeName="opacity" values="1;0" keyTimes="0;1" dur="3.3333333333333335s" begin="-2.5555555555555554s" repeatCount="indefinite"></animate>
  </rect>
</g><g transform="rotate(84 50 50)">
  <rect x="49.5" y="27.5" rx="0" ry="0" width="1" height="5" fill="#d1a687">
    <animate attributeName="opacity" values="1;0" keyTimes="0;1" dur="3.3333333333333335s" begin="-2.4444444444444446s" repeatCount="indefinite"></animate>
  </rect>
</g><g transform="rotate(96 50 50)">
  <rect x="49.5" y="27.5" rx="0" ry="0" width="1" height="5" fill="#d1a687">
    <animate attributeName="opacity" values="1;0" keyTimes="0;1" dur="3.3333333333333335s" begin="-2.3333333333333335s" repeatCount="indefinite"></animate>
  </rect>
</g><g transform="rotate(108 50 50)">
  <rect x="49.5" y="27.5" rx="0" ry="0" width="1" height="5" fill="#d1a687">
    <animate attributeName="opacity" values="1;0" keyTimes="0;1" dur="3.3333333333333335s" begin="-2.2222222222222223s" repeatCount="indefinite"></animate>
  </rect>
</g><g transform="rotate(120 50 50)">
  <rect x="49.5" y="27.5" rx="0" ry="0" width="1" height="5" fill="#d1a687">
    <animate attributeName="opacity" values="1;0" keyTimes="0;1" dur="3.3333333333333335s" begin="-2.111111111111111s" repeatCount="indefinite"></animate>
  </rect>
</g><g transform="rotate(132 50 50)">
  <rect x="49.5" y="27.5" rx="0" ry="0" width="1" height="5" fill="#d1a687">
    <animate attributeName="opacity" values="1;0" keyTimes="0;1" dur="3.3333333333333335s" begin="-2s" repeatCount="indefinite"></animate>
  </rect>
</g><g transform="rotate(144 50 50)">
  <rect x="49.5" y="27.5" rx="0" ry="0" width="1" height="5" fill="#d1a687">
    <animate attributeName="opacity" values="1;0" keyTimes="0;1" dur="3.3333333333333335s" begin="-1.8888888888888888s" repeatCount="indefinite"></animate>
  </rect>
</g><g transform="rotate(156 50 50)">
  <rect x="49.5" y="27.5" rx="0" ry="0" width="1" height="5" fill="#d1a687">
    <animate attributeName="opacity" values="1;0" keyTimes="0;1" dur="3.3333333333333335s" begin="-1.7777777777777777s" repeatCount="indefinite"></animate>
  </rect>
</g><g transform="rotate(168 50 50)">
  <rect x="49.5" y="27.5" rx="0" ry="0" width="1" height="5" fill="#d1a687">
    <animate attributeName="opacity" values="1;0" keyTimes="0;1" dur="3.3333333333333335s" begin="-1.6666666666666667s" repeatCount="indefinite"></animate>
  </rect>
</g><g transform="rotate(180 50 50)">
  <rect x="49.5" y="27.5" rx="0" ry="0" width="1" height="5" fill="#d1a687">
    <animate attributeName="opacity" values="1;0" keyTimes="0;1" dur="3.3333333333333335s" begin="-1.5555555555555556s" repeatCount="indefinite"></animate>
  </rect>
</g><g transform="rotate(192 50 50)">
  <rect x="49.5" y="27.5" rx="0" ry="0" width="1" height="5" fill="#d1a687">
    <animate attributeName="opacity" values="1;0" keyTimes="0;1" dur="3.3333333333333335s" begin="-1.4444444444444444s" repeatCount="indefinite"></animate>
  </rect>
</g><g transform="rotate(204 50 50)">
  <rect x="49.5" y="27.5" rx="0" ry="0" width="1" height="5" fill="#d1a687">
    <animate attributeName="opacity" values="1;0" keyTimes="0;1" dur="3.3333333333333335s" begin="-1.3333333333333333s" repeatCount="indefinite"></animate>
  </rect>
</g><g transform="rotate(216 50 50)">
  <rect x="49.5" y="27.5" rx="0" ry="0" width="1" height="5" fill="#d1a687">
    <animate attributeName="opacity" values="1;0" keyTimes="0;1" dur="3.3333333333333335s" begin="-1.2222222222222223s" repeatCount="indefinite"></animate>
  </rect>
</g><g transform="rotate(228 50 50)">
  <rect x="49.5" y="27.5" rx="0" ry="0" width="1" height="5" fill="#d1a687">
    <animate attributeName="opacity" values="1;0" keyTimes="0;1" dur="3.3333333333333335s" begin="-1.1111111111111112s" repeatCount="indefinite"></animate>
  </rect>
</g><g transform="rotate(240 50 50)">
  <rect x="49.5" y="27.5" rx="0" ry="0" width="1" height="5" fill="#d1a687">
    <animate attributeName="opacity" values="1;0" keyTimes="0;1" dur="3.3333333333333335s" begin="-1s" repeatCount="indefinite"></animate>
  </rect>
</g><g transform="rotate(252 50 50)">
  <rect x="49.5" y="27.5" rx="0" ry="0" width="1" height="5" fill="#d1a687">
    <animate attributeName="opacity" values="1;0" keyTimes="0;1" dur="3.3333333333333335s" begin="-0.8888888888888888s" repeatCount="indefinite"></animate>
  </rect>
</g><g transform="rotate(264 50 50)">
  <rect x="49.5" y="27.5" rx="0" ry="0" width="1" height="5" fill="#d1a687">
    <animate attributeName="opacity" values="1;0" keyTimes="0;1" dur="3.3333333333333335s" begin="-0.7777777777777778s" repeatCount="indefinite"></animate>
  </rect>
</g><g transform="rotate(276 50 50)">
  <rect x="49.5" y="27.5" rx="0" ry="0" width="1" height="5" fill="#d1a687">
    <animate attributeName="opacity" values="1;0" keyTimes="0;1" dur="3.3333333333333335s" begin="-0.6666666666666666s" repeatCount="indefinite"></animate>
  </rect>
</g><g transform="rotate(288 50 50)">
  <rect x="49.5" y="27.5" rx="0" ry="0" width="1" height="5" fill="#d1a687">
    <animate attributeName="opacity" values="1;0" keyTimes="0;1" dur="3.3333333333333335s" begin="-0.5555555555555556s" repeatCount="indefinite"></animate>
  </rect>
</g><g transform="rotate(300 50 50)">
  <rect x="49.5" y="27.5" rx="0" ry="0" width="1" height="5" fill="#d1a687">
    <animate attributeName="opacity" values="1;0" keyTimes="0;1" dur="3.3333333333333335s" begin="-0.4444444444444444s" repeatCount="indefinite"></animate>
  </rect>
</g><g transform="rotate(312 50 50)">
  <rect x="49.5" y="27.5" rx="0" ry="0" width="1" height="5" fill="#d1a687">
    <animate attributeName="opacity" values="1;0" keyTimes="0;1" dur="3.3333333333333335s" begin="-0.3333333333333333s" repeatCount="indefinite"></animate>
  </rect>
</g><g transform="rotate(324 50 50)">
  <rect x="49.5" y="27.5" rx="0" ry="0" width="1" height="5" fill="#d1a687">
    <animate attributeName="opacity" values="1;0" keyTimes="0;1" dur="3.3333333333333335s" begin="-0.2222222222222222s" repeatCount="indefinite"></animate>
  </rect>
</g><g transform="rotate(336 50 50)">
  <rect x="49.5" y="27.5" rx="0" ry="0" width="1" height="5" fill="#d1a687">
    <animate attributeName="opacity" values="1;0" keyTimes="0;1" dur="3.3333333333333335s" begin="-0.1111111111111111s" repeatCount="indefinite"></animate>
  </rect>
</g><g transform="rotate(348 50 50)">
  <rect x="49.5" y="27.5" rx="0" ry="0" width="1" height="5" fill="#d1a687">
    <animate attributeName="opacity" values="1;0" keyTimes="0;1" dur="3.3333333333333335s" begin="0s" repeatCount="indefinite"></animate>
  </rect>
</g>
<!-- [ldio] generated by https://loading.io/ --></svg>