<svg id="Layer_1" data-name="Layer 1" xmlns="http://www.w3.org/2000/svg" viewBox="0 0 221 51"><defs><style>.cls-1{fill:#484b4f;}.cls-2{fill:#fff;}</style></defs><title></title><g id="Group_231" data-name="Group 231"><g id="Group_230" data-name="Group 230"><path id="Path_448" data-name="Path 448" class="cls-1" d="M215.15,29.39V20.15h-1.47v10.6h6.73V29.39Z"/><path id="Path_449" data-name="Path 449" class="cls-1" d="M152.87,20.15H147v1.33h1.57v9.27H150V27h2.83c2.18,0,3.73-1.32,3.73-3.42S155.05,20.15,152.87,20.15Zm-.28,5.48H150V21.48h2.55c1.56,0,2.49.73,2.49,2.07s-.93,2.08-2.49,2.08Z"/><rect id="Rectangle_1489" data-name="Rectangle 1489" class="cls-1" x="166.76" y="20.14" width="1.47" height="10.6"/><path id="Path_450" data-name="Path 450" class="cls-1" d="M178.55,21.48h3.75v9.27h1.47V21.48h3.79V20.14h-9Z"/><path id="Path_451" data-name="Path 451" class="cls-1" d="M111.57,29.47a4,4,0,1,1,3.47-6l1.31-.67a5.46,5.46,0,1,0,0,5.34L115,27.5A4,4,0,0,1,111.57,29.47Z"/><path id="Path_452" data-name="Path 452" class="cls-1" d="M200,20.15h-.84l-4.58,10.6h1.56l.93-2.16h5l.92,2.16h1.57Zm-2.39,7.12,1.91-4.45h.12l1.9,4.45Z"/><g id="Group_229" data-name="Group 229"><path id="Path_453" data-name="Path 453" class="cls-2" d="M98.51,46.76c-.22-.13-.44-.26-.65-.4l-.15-.09L101,41l.14.09.49.3.15.09-3.15,5.38Z"/><path id="Path_454" data-name="Path 454" class="cls-2" d="M88.52,35.69l-.3-.7-.07-.16,5.75-2.4.07.16c.07.17.15.35.23.52l.07.16-5.68,2.58Z"/><path id="Path_455" data-name="Path 455" class="cls-2" d="M91.07,40l-.44-.61-.1-.15,5.14-3.52.1.14.33.46.1.14-5,3.69Z"/><path id="Path_456" data-name="Path 456" class="cls-2" d="M94.44,43.77c-.19-.16-.37-.34-.55-.51l-.13-.12,4.32-4.5.13.12.41.39.13.11-4.18,4.63Z"/><path id="Path_457" data-name="Path 457" class="cls-2" d="M86.72,21.05l0-.17c0-.25.1-.5.16-.74L87,20,93,21.32l0,.17c0,.18-.08.37-.11.55l0,.18Z"/><path id="Path_458" data-name="Path 458" class="cls-2" d="M86.92,30.9c-.06-.24-.11-.49-.16-.74l0-.17,6.12-1.18,0,.18.12.55,0,.17L87,31.07Z"/><path id="Path_459" data-name="Path 459" class="cls-2" d="M122.79,11.43l-.44-.36-.14-.11,3.87-4.88.14.11c.2.15.39.31.59.48l.13.11-4,4.76Z"/><path id="Path_460" data-name="Path 460" class="cls-2" d="M97.68,4.75l.15-.1.65-.39.15-.09,3.16,5.37-.15.09-.48.3L101,10Z"/><path id="Path_461" data-name="Path 461" class="cls-2" d="M125.41,14.14c-.11-.14-.23-.3-.35-.44l-.12-.13,4.78-4,.12.13c.15.19.32.39.47.59l.11.14-4.9,3.85Z"/><path id="Path_462" data-name="Path 462" class="cls-2" d="M88.14,16.21,88.2,16l.3-.7.07-.16,5.68,2.58-.07.16c-.08.17-.15.34-.22.52l-.07.16Z"/><path id="Path_463" data-name="Path 463" class="cls-2" d="M90.51,11.75l.1-.14c.14-.21.29-.42.44-.62l.1-.14,5,3.68-.1.14-.33.46-.1.15Z"/><path id="Path_464" data-name="Path 464" class="cls-2" d="M93.74,7.88l.13-.12c.17-.17.36-.34.55-.51l.13-.12,4.19,4.62-.13.11-.42.39-.13.12Z"/><path id="Path_465" data-name="Path 465" class="cls-2" d="M86.32,25.9V25l6.24.09V26l-6.24.1Z"/><path id="Path_466" data-name="Path 466" class="cls-2" d="M119,42l.16-.08.5-.26.15-.09,3,5.48-.16.09-.67.35-.16.08Z"/><path id="Path_467" data-name="Path 467" class="cls-2" d="M119.68,9.31l-.5-.26L119,9l2.8-5.57.16.08.67.35.16.08-3,5.48Z"/><path id="Path_468" data-name="Path 468" class="cls-2" d="M115.52,43.32l.16,0,.55-.16.17,0,1.78,6-.17.05-.73.2-.16.05Z"/><path id="Path_469" data-name="Path 469" class="cls-2" d="M116.21,7.87l-.55-.15-.17,0,1.59-6,.17,0,.74.21.16.05-1.77,6Z"/><path id="Path_470" data-name="Path 470" class="cls-2" d="M125,37.41l.11-.13.36-.44.11-.14,4.9,3.85-.11.14c-.15.2-.31.4-.47.59l-.12.13Z"/><path id="Path_471" data-name="Path 471" class="cls-2" d="M122.23,40l.14-.11.44-.36.13-.11,4,4.76-.13.11c-.19.17-.39.33-.59.48l-.13.11Z"/><path id="Path_472" data-name="Path 472" class="cls-2" d="M107.06,1.18l.18,0,.75-.1.17,0,.74,6.19-.17,0-.56.08-.18,0Z"/><path id="Path_473" data-name="Path 473" class="cls-2" d="M103.1,48.85l-.72-.25-.16-.07,2.17-5.84.16.06.54.19.16.06-2,5.91Z"/><path id="Path_474" data-name="Path 474" class="cls-2" d="M102.19,2.48l.16-.06.72-.26.16-.05,2,5.9-.17.06-.53.19-.17.06Z"/><path id="Path_475" data-name="Path 475" class="cls-2" d="M111.79,43.87H112l.57,0,.17,0,.53,6.21-.17,0-.76.05h-.17Z"/><path id="Path_476" data-name="Path 476" class="cls-2" d="M112.51,7.17l-.57,0h-.17L112.1.9h.17L113,1l.17,0-.52,6.21Z"/><path id="Path_477" data-name="Path 477" class="cls-2" d="M108,50l-.76-.1-.17,0,.92-6.17.18,0,.56.07.17,0L108.2,50Z"/></g><path id="Path_478" data-name="Path 478" class="cls-1" d="M132.39,20.15h-.79l-4.75,10.6h1.56l1-2.16h5.15l1,2.16h1.56ZM130,27.27l2-4.58H132l2,4.58Z"/><path id="Path_479" data-name="Path 479" class="cls-1" d="M8.33,21.84a2.11,2.11,0,0,0-1.92-1.63H4.49L.59,30.75H3.13l.67-1.94H8.29L9,30.75h2.54Zm-2.4.84H6c.24,0,.35.13.43.41l1.18,3.6H4.53Z"/><path id="Path_480" data-name="Path 480" class="cls-1" d="M49.66,21.84a2.11,2.11,0,0,0-1.91-1.63H45.82l-3.9,10.54h2.54l.68-1.94h4.48l.66,1.94h2.54Zm-2.4.84h.09c.24,0,.35.13.44.41L49,26.69H45.87Z"/><path id="Path_481" data-name="Path 481" class="cls-1" d="M73.12,20.18c-.54,0-1.15.58-1.53,1l-3,3.17-3-3.17c-.38-.39-1-1-1.52-1H62.82V30.75h2.55v-6.1l3.22,3.21,3.21-3.21v6.1h2.55V20.18Z"/><path id="Path_482" data-name="Path 482" class="cls-1" d="M32.29,30.75l-2.47-4a3.19,3.19,0,0,0,2.24-3.29c0-2.14-1.81-3.28-4.06-3.28H22.68V30.75h2.53V27H26.7c.23,0,.5.13.76.56l1.92,3.23ZM28.17,25h-3V22.33H28c.87,0,1.58.4,1.58,1.34A1.26,1.26,0,0,1,28.38,25Z"/></g></g></svg>