<svg xmlns="http://www.w3.org/2000/svg" width="219.636" height="49.157" viewBox="0 0 219.636 49.157">
  <g id="Arte" transform="translate(-84 -88.047)">
    <g id="Grupo_2" data-name="Grupo 2" transform="translate(84 88.047)">
      <path id="Caminho_1" data-name="Caminho 1" d="M977.318,177.825v-9.233h-1.468v10.6h6.721v-1.362Z" transform="translate(-762.934 -149.363)" fill="#fff"/>
      <path id="Caminho_2" data-name="Caminho 2" d="M702.63,168.591h-5.859v1.332h1.564v9.264H699.8V175.4h2.827c2.18,0,3.724-1.317,3.724-3.421S704.81,168.591,702.63,168.591Zm-.273,5.48H699.8v-4.148h2.555c1.559,0,2.482.726,2.482,2.074S703.917,174.071,702.358,174.071Z" transform="translate(-550.481 -149.362)" fill="#fff"/>
      <rect id="Retângulo_2" data-name="Retângulo 2" width="1.468" height="10.596" transform="translate(166.029 19.229)" fill="#fff"/>
      <path id="Caminho_3" data-name="Caminho 3" d="M828.8,169.923h3.748v9.264h1.468v-9.264H837.8v-1.332h-9Z" transform="translate(-650.991 -149.363)" fill="#fff"/>
      <path id="Caminho_4" data-name="Caminho 4" d="M530.971,177.625a3.972,3.972,0,1,1,3.463-5.967l1.316-.673a5.441,5.441,0,1,0,0,5.338l-1.316-.673A4.01,4.01,0,0,1,530.971,177.625Z" transform="translate(-420.083 -149.075)" fill="#fff"/>
      <path id="Caminho_5" data-name="Caminho 5" d="M901.232,168.591h-.839l-4.571,10.6h1.558l.929-2.158h5.006l.914,2.158H905.8Zm-2.383,7.119,1.9-4.446h.119l1.9,4.446Z" transform="translate(-702.012 -149.362)" fill="#fff"/>
      <g id="Grupo_1" data-name="Grupo 1" transform="translate(85.659)">
        <path id="Caminho_6" data-name="Caminho 6" d="M491.271,261.6c-.216-.127-.434-.259-.648-.393l-.148-.093,3.314-5.275.148.093c.16.1.324.2.485.295l.15.088-3.15,5.373Z" transform="translate(-479.094 -215.781)" fill="#d1a687"/>
        <path id="Caminho_7" data-name="Caminho 7" d="M450.828,223.243c-.1-.227-.2-.46-.3-.692l-.067-.161,5.746-2.4.068.161c.073.174.148.348.226.518l.072.159L450.9,223.4Z" transform="translate(-448.631 -188.488)" fill="#d1a687"/>
        <path id="Caminho_8" data-name="Caminho 8" d="M460.952,238.174c-.148-.2-.3-.41-.438-.618l-.1-.144,5.137-3.523.1.144c.105.154.215.309.327.461l.1.141-5.026,3.68Z" transform="translate(-456.21 -199.071)" fill="#d1a687"/>
        <path id="Caminho_9" data-name="Caminho 9" d="M474.623,251.138c-.187-.169-.373-.342-.553-.516l-.126-.121,4.315-4.492.126.121c.135.13.275.26.416.387l.129.117-4.177,4.621Z" transform="translate(-466.509 -208.298)" fill="#d1a687"/>
        <path id="Caminho_10" data-name="Caminho 10" d="M444.48,168.926l.033-.172c.047-.247.1-.5.153-.741l.038-.171,6.081,1.35-.038.17c-.041.183-.079.371-.114.556l-.033.171Z" transform="translate(-444.079 -148.793)" fill="#d1a687"/>
        <path id="Caminho_11" data-name="Caminho 11" d="M444.7,206.965c-.055-.244-.107-.494-.154-.743l-.033-.172,6.118-1.171.033.172c.035.183.074.369.115.553l.038.17-6.078,1.362Z" transform="translate(-444.101 -176.987)" fill="#d1a687"/>
        <path id="Caminho_12" data-name="Caminho 12" d="M593.614,115.067c-.144-.121-.292-.242-.439-.358l-.137-.109,3.867-4.883.137.108c.2.156.395.318.587.48l.134.112-4.015,4.762Z" transform="translate(-557.171 -104.544)" fill="#d1a687"/>
        <path id="Caminho_13" data-name="Caminho 13" d="M490.364,102.31l.148-.093c.212-.134.43-.266.647-.394l.151-.089,3.157,5.37-.151.089c-.162.1-.324.194-.482.293l-.148.093Z" transform="translate(-479.009 -98.466)" fill="#d1a687"/>
        <path id="Caminho_14" data-name="Caminho 14" d="M604.919,128.893c-.116-.147-.236-.3-.357-.44l-.112-.134,4.776-4,.112.134c.159.19.32.388.478.589l.108.137-4.9,3.85Z" transform="translate(-565.859 -115.661)" fill="#d1a687"/>
        <path id="Caminho_15" data-name="Caminho 15" d="M450.4,148.854l.067-.161c.1-.233.2-.468.3-.7l.072-.159,5.674,2.572-.072.159c-.078.171-.153.346-.226.519l-.067.161Z" transform="translate(-448.585 -133.562)" fill="#d1a687"/>
        <path id="Caminho_16" data-name="Caminho 16" d="M460.343,130.584l.1-.144c.143-.209.29-.418.438-.619l.1-.141,5.03,3.674-.1.141c-.11.151-.22.307-.328.463l-.1.144Z" transform="translate(-456.155 -119.74)" fill="#d1a687"/>
        <path id="Caminho_17" data-name="Caminho 17" d="M473.854,114.865l.126-.121c.178-.172.364-.345.552-.516l.13-.117,4.185,4.613-.129.117c-.142.129-.282.26-.416.388l-.126.121Z" transform="translate(-466.441 -107.889)" fill="#d1a687"/>
        <path id="Caminho_18" data-name="Caminho 18" d="M442.805,189.7q0-.2,0-.4c0-.117,0-.236,0-.355l0-.175,6.228.089,0,.174c0,.09,0,.18,0,.27s0,.2,0,.3l0,.175-6.229.1Z" transform="translate(-442.802 -164.725)" fill="#d1a687"/>
        <path id="Caminho_19" data-name="Caminho 19" d="M579.763,258.786l.156-.079c.165-.083.333-.171.5-.261l.154-.083,2.97,5.475-.154.083c-.224.122-.451.24-.673.352l-.156.079Z" transform="translate(-547.066 -217.703)" fill="#d1a687"/>
        <path id="Caminho_20" data-name="Caminho 20" d="M580.319,104.408c-.166-.09-.335-.178-.5-.262l-.156-.078,2.793-5.568.156.078c.223.112.449.23.673.35l.154.083-2.963,5.479Z" transform="translate(-546.987 -96.005)" fill="#d1a687"/>
        <path id="Caminho_21" data-name="Caminho 21" d="M564.992,264.8l.169-.045c.18-.048.363-.1.543-.153l.167-.05,1.785,5.968-.167.05c-.242.072-.487.142-.729.206l-.169.045Z" transform="translate(-535.821 -222.41)" fill="#d1a687"/>
        <path id="Caminho_22" data-name="Caminho 22" d="M565.594,97.384c-.181-.054-.365-.106-.545-.153l-.169-.045,1.589-6.023.169.045c.245.064.491.134.732.205l.167.05-1.776,5.97Z" transform="translate(-535.736 -90.42)" fill="#d1a687"/>
        <path id="Caminho_23" data-name="Caminho 23" d="M604.514,238.59l.112-.134c.121-.144.24-.293.357-.441l.108-.138,4.9,3.844-.108.137c-.155.2-.316.4-.477.589l-.112.134Z" transform="translate(-565.908 -202.108)" fill="#d1a687"/>
        <path id="Caminho_24" data-name="Caminho 24" d="M593.117,249.921l.137-.109c.147-.117.295-.238.439-.36l.133-.113,4.02,4.758-.133.113c-.192.163-.389.324-.585.48l-.137.109Z" transform="translate(-557.232 -210.834)" fill="#d1a687"/>
        <path id="Caminho_25" data-name="Caminho 25" d="M529.614,88.739l.173-.026c.248-.037.5-.072.752-.1l.173-.021.742,6.185-.174.021c-.187.022-.375.048-.561.076l-.173.026Z" transform="translate(-508.889 -88.46)" fill="#d1a687"/>
        <path id="Caminho_26" data-name="Caminho 26" d="M510.232,269.1c-.236-.079-.477-.164-.718-.254l-.164-.061,2.166-5.841.164.061c.176.065.356.129.535.189l.165.056-1.982,5.905Z" transform="translate(-493.463 -221.191)" fill="#d1a687"/>
        <path id="Caminho_27" data-name="Caminho 27" d="M509.207,93.47l.164-.061c.241-.09.481-.175.716-.254l.165-.056,1.991,5.9-.165.056c-.177.06-.356.123-.532.189l-.164.061Z" transform="translate(-493.354 -91.893)" fill="#d1a687"/>
        <path id="Caminho_28" data-name="Caminho 28" d="M549.4,267.7l.174-.01c.187-.01.377-.023.565-.039l.174-.015.53,6.206-.174.015c-.251.021-.506.039-.757.053l-.174.01Z" transform="translate(-523.953 -224.759)" fill="#d1a687"/>
        <path id="Caminho_29" data-name="Caminho 29" d="M550.021,94.315c-.189-.016-.38-.029-.566-.039l-.174-.009.329-6.22.174.009c.249.013.5.031.755.052l.174.015L550.2,94.33Z" transform="translate(-523.861 -88.047)" fill="#d1a687"/>
        <path id="Caminho_30" data-name="Caminho 30" d="M530.7,273.3c-.251-.03-.5-.064-.751-.1l-.173-.026.923-6.16.173.026c.185.028.374.053.561.075l.174.021-.733,6.186Z" transform="translate(-509.008 -224.289)" fill="#d1a687"/>
      </g>
      <path id="Caminho_31" data-name="Caminho 31" d="M617.969,168.591h-.79l-4.746,10.6h1.559L615,177.029h5.152l1.006,2.158h1.559Zm-2.421,7.119,1.991-4.581h.07l1.992,4.581Z" transform="translate(-486.278 -149.362)" fill="#fff"/>
      <path id="Caminho_32" data-name="Caminho 32" d="M91.731,170.473a2.12,2.12,0,0,0-1.912-1.63H87.9L84,179.379h2.538l.671-1.938h4.483l.659,1.938H94.89Zm-2.4.84h.091c.238,0,.35.138.435.417l1.173,3.6h-3.09Z" transform="translate(-84 -149.554)" fill="#fff"/>
      <path id="Caminho_33" data-name="Caminho 33" d="M264.727,170.473a2.12,2.12,0,0,0-1.912-1.63h-1.922L257,179.379h2.538l.671-1.938h4.483l.659,1.938h2.538Zm-2.4.84h.091c.238,0,.35.138.435.417l1.173,3.6h-3.09Z" transform="translate(-215.696 -149.554)" fill="#fff"/>
      <path id="Caminho_34" data-name="Caminho 34" d="M354.728,168.718c-.533,0-1.143.583-1.521.976l-3.006,3.16-3.006-3.16c-.378-.393-.988-.976-1.521-.976h-1.236v10.565h2.548v-6.1l3.215,3.206,3.215-3.206v6.1h2.548V168.718Z" transform="translate(-282.263 -149.459)" fill="#fff"/>
      <path id="Caminho_35" data-name="Caminho 35" d="M186.063,179.379l-2.472-3.977a3.193,3.193,0,0,0,2.243-3.283c0-2.137-1.814-3.276-4.057-3.276h-5.316v10.536h2.529V175.6h1.486c.225,0,.5.127.756.555l1.926,3.227Zm-4.117-5.738H178.99v-2.676h2.761c.868,0,1.581.405,1.581,1.338A1.262,1.262,0,0,1,181.946,173.641Z" transform="translate(-154.387 -149.554)" fill="#fff"/>
    </g>
  </g>
</svg>
